<svg width="322" height="343" viewBox="0 0 322 343" fill="none" xmlns="http://www.w3.org/2000/svg">
<path d="M14.0055 299.921L0.0311279 318.896L23.5628 336.408C25.1182 334.075 16.2763 320.482 16.2763 320.482L25.7325 308.693L14.0055 299.921Z" fill="#455A64"/>
<path d="M9.79072 314.059C9.514 313.958 9.20975 313.963 8.93683 314.074C8.6639 314.185 8.44169 314.393 8.31318 314.658C8.20388 314.932 8.20337 315.237 8.31176 315.512C8.42016 315.787 8.62927 316.009 8.89642 316.135C9.18962 316.238 9.51065 316.23 9.79775 316.11C10.0849 315.991 10.3178 315.77 10.4517 315.49C10.5376 315.192 10.5046 314.872 10.3596 314.598C10.2145 314.324 9.96878 314.116 9.67407 314.02" fill="white"/>
<path d="M0 318.942L1.48531 316.905L23.4695 334.604C23.4695 334.604 24.1694 335.848 23.4695 336.494L0 318.942Z" fill="#263238"/>
<path d="M16.7895 320.653C16.7039 320.77 16.0896 320.397 15.2342 320.342C14.3788 320.288 13.7333 320.552 13.6789 320.428C13.6244 320.303 14.2777 319.767 15.2886 319.844C16.2996 319.922 16.8517 320.568 16.7895 320.653Z" fill="#263238"/>
<path d="M18.4614 323.515C18.3992 323.647 17.7615 323.468 17.0072 323.663C16.2529 323.857 15.7629 324.293 15.6463 324.199C15.5296 324.106 15.9496 323.422 16.8905 323.18C17.8315 322.939 18.5392 323.406 18.4614 323.515Z" fill="#263238"/>
<path d="M17.6605 327.512C17.5361 327.458 17.8082 326.734 18.5703 326.353C19.3324 325.972 20.0556 326.097 20.0323 326.229C20.009 326.361 19.4258 326.447 18.8114 326.797C18.1971 327.147 17.7849 327.582 17.6605 327.512Z" fill="#263238"/>
<path d="M18.6092 317.729C18.477 317.799 18.0726 317.247 17.3883 316.812C16.7039 316.376 16.0507 316.197 16.0585 316.034C16.0663 315.871 16.8361 315.839 17.6604 316.368C18.4848 316.897 18.7336 317.683 18.6092 317.729Z" fill="#263238"/>
<path d="M70.8984 220.492C71.3183 222.871 71.9871 243.114 72.4148 253.791C72.8425 264.468 71.7771 269.717 70.5562 272.112C69.3353 274.507 23.2906 308.436 19.7834 316.563L8.11862 307.161C8.11862 307.161 25.2269 276.451 32.5213 270.868C39.8157 265.284 53.8523 260.16 53.8523 260.16L49.8629 201.688L68.9854 200.646L70.8984 220.492Z" fill="#263238"/>
<path d="M28.1042 318.686L27.902 342.225L57.2272 342.63C57.095 339.83 42.0008 333.99 42.0008 333.99L42.7785 318.896L28.1042 318.686Z" fill="#455A64"/>
<path d="M32.9491 332.629C32.6661 332.711 32.4232 332.894 32.2669 333.144C32.1105 333.393 32.0516 333.692 32.1015 333.982C32.1736 334.268 32.3522 334.516 32.6007 334.675C32.8492 334.834 33.1491 334.892 33.439 334.837C33.7378 334.749 33.9934 334.553 34.157 334.287C34.3205 334.022 34.3805 333.706 34.3255 333.399C34.2213 333.108 34.0081 332.869 33.7309 332.733C33.4537 332.596 33.1343 332.573 32.8402 332.668" fill="white"/>
<path d="M27.8944 342.311V339.783L56.0843 341.245C56.0843 341.245 57.3752 341.844 57.2119 342.762L27.8944 342.311Z" fill="#263238"/>
<path d="M42.452 333.881C42.452 334.029 41.7288 334.083 41.0211 334.534C40.3134 334.985 39.9246 335.576 39.7924 335.522C39.6602 335.467 39.8857 334.635 40.7567 334.106C41.6277 333.578 42.5142 333.749 42.452 333.881Z" fill="#263238"/>
<path d="M45.5626 335.226C45.5626 335.366 44.9638 335.6 44.4739 336.198C43.984 336.797 43.8285 337.443 43.6963 337.427C43.5641 337.412 43.4707 336.611 44.1006 335.872C44.7305 335.133 45.5626 335.063 45.5626 335.226Z" fill="#263238"/>
<path d="M47.2346 338.905C47.1024 338.905 46.9157 338.213 47.289 337.435C47.6623 336.657 48.3466 336.354 48.4011 336.471C48.4555 336.587 48.0433 337.007 47.74 337.653C47.4368 338.298 47.3746 338.889 47.2346 338.905Z" fill="#263238"/>
<path d="M42.2654 330.42C42.2032 330.553 41.55 330.343 40.7101 330.42C39.8702 330.498 39.2637 330.708 39.1548 330.584C39.0459 330.459 39.6914 329.962 40.6479 329.923C41.6044 329.884 42.3354 330.312 42.2654 330.42Z" fill="#263238"/>
<path d="M73.0136 198.228C73.0136 199.604 75.2455 234.451 63.8529 259.662C63.8529 259.662 59.9102 267.547 59.187 270.992C58.4638 274.437 43.7273 331.579 43.7273 331.579L26.6967 330.957C26.6967 330.957 23.975 302.332 26.6967 285.76C29.4185 269.188 34.4732 271.132 34.4732 260.432C34.4732 249.731 31.9303 227.545 31.9303 227.545C31.9303 227.545 28.2132 221.487 26.9456 209.737C25.9113 200.195 30.4061 189.969 30.4061 189.969L34.8465 182.107L72.4148 180.139L73.0136 198.228Z" fill="#263238"/>
<path d="M73.0137 198.227C73.0137 198.227 73.0137 197.823 73.0137 197.038C73.0137 196.252 72.967 195.086 72.9359 193.554C72.8659 190.482 72.7493 185.956 72.6093 180.108V180.023H72.516L34.9477 181.936H34.8699L34.8232 182.006C33.4468 184.448 31.9304 187.115 30.3751 189.868C29.2183 192.658 28.3152 195.547 27.6766 198.5C26.9711 201.608 26.6551 204.793 26.7357 207.979C26.9724 211.307 27.4927 214.608 28.291 217.848C29.0611 221.249 30.2714 224.535 31.8915 227.623V227.545C32.5369 233.346 33.1357 239.357 33.6412 245.548C33.8901 248.658 34.1078 251.769 34.2633 254.965C34.3411 256.52 34.4033 258.153 34.4111 259.763C34.4111 260.541 34.4111 261.373 34.3644 262.174C34.3091 262.977 34.2104 263.776 34.0689 264.569C33.7506 266.165 33.1866 267.703 32.397 269.126C31.6193 270.58 30.8417 272.019 30.064 273.535C28.6556 276.613 27.6293 279.851 27.0079 283.178C25.6547 289.866 25.3826 296.818 25.3048 303.825C25.3048 313.071 25.7403 322.154 26.5024 330.934V331.12H26.6812L43.7118 331.742H43.8751L43.914 331.579C48.8521 312.441 53.4558 294.555 57.5151 278.473L58.9849 272.524C59.2415 271.537 59.4048 270.557 59.7081 269.624C60.0114 268.69 60.3535 267.765 60.7112 266.863C61.4422 265.059 62.2666 263.309 63.0442 261.606L63.6508 260.339C63.8662 259.924 64.0583 259.499 64.2262 259.063C64.5762 258.2 64.9261 257.352 65.2761 256.505C67.6945 250.233 69.4942 243.74 70.6496 237.118C72.3151 227.684 73.1736 218.126 73.2159 208.547C73.2625 201.844 72.9904 198.204 72.9904 198.204C72.9904 198.204 72.9904 198.43 72.9904 198.873C72.9904 199.316 72.9904 199.993 73.037 200.864C73.0837 202.613 73.1148 205.195 73.037 208.547C72.9651 218.118 72.0989 227.667 70.4474 237.095C69.2653 243.695 67.4422 250.165 65.0039 256.411L63.9618 258.954C63.7907 259.39 63.5963 259.802 63.3864 260.222C63.1764 260.642 62.9742 261.069 62.772 261.497C61.9944 263.2 61.1701 264.95 60.4391 266.762C60.0736 267.672 59.7236 268.597 59.4203 269.546C59.1171 270.495 58.9382 271.498 58.6894 272.462C58.1994 274.422 57.7095 276.397 57.204 278.411C53.0747 294.477 48.4788 312.363 43.5563 331.501L43.7585 331.354L26.7279 330.724L26.9301 330.91C26.1524 322.146 25.7014 313.071 25.7325 303.84C25.8103 296.841 26.0824 289.92 27.4278 283.279C28.0473 279.983 29.063 276.774 30.4528 273.722C31.1527 272.221 32.0081 270.798 32.7858 269.32C33.5702 267.858 34.1261 266.285 34.4344 264.654C34.5819 263.844 34.6831 263.026 34.7377 262.205C34.7377 261.427 34.8155 260.572 34.7844 259.771C34.7844 258.153 34.7144 256.544 34.6366 254.949C34.4811 251.761 34.2556 248.619 33.9989 245.524C33.4805 239.303 32.8921 233.297 32.2337 227.506V227.459C30.6131 224.411 29.3974 221.164 28.6176 217.801C27.8238 214.585 27.3035 211.307 27.0623 208.003C26.9785 204.845 27.2868 201.69 27.9799 198.609C28.6065 195.685 29.4887 192.823 30.6162 190.054V190.054L35.0488 182.185L34.9243 182.262L72.4927 180.233L72.3916 180.147C72.5782 185.987 72.7182 190.513 72.8115 193.585C72.8659 195.14 72.9048 196.276 72.9359 197.069C72.967 197.862 73.0137 198.227 73.0137 198.227Z" fill="#455A64"/>
<path d="M60.7968 126.87C60.7968 126.87 50.6873 125.082 51.6283 138.092C52.2193 145.868 54.5056 159.213 55.7732 167.728C56.2087 170.675 57.173 175.948 61.069 179.043L88.9867 198.36L97.7974 187.823L72.8659 164.081L68.9777 140.596L60.7968 126.87Z" fill="#455A64"/>
<path d="M61.9865 79.9779C63.5889 81.2682 64.8567 82.9257 65.6825 84.8101C66.5083 86.6944 66.8676 88.7501 66.7302 90.8028C66.5747 92.7936 66.0225 95.0566 67.3212 96.573C68.6199 98.0894 71.1084 98.035 72.3371 99.5747C73.7757 101.394 72.5703 104.101 73.1147 106.364C73.3922 107.421 74.0366 108.344 74.9327 108.97C75.8289 109.595 76.9183 109.882 78.0061 109.777C75.454 111.866 72.376 113.211 69.1098 113.666L66.5591 110.485C67.5078 111.605 67.2512 113.386 66.3414 114.529C65.353 115.593 64.0785 116.349 62.6709 116.706C59.3207 117.737 55.7779 117.981 52.3182 117.418C48.8585 116.856 45.5752 115.502 42.7241 113.464" fill="#263238"/>
<path d="M24.636 97.5295C25.1337 95.9742 25.9736 94.5978 26.308 93.0347C27.0234 89.6675 25.3826 85.8725 27.0156 82.8397C28.1821 80.6856 30.655 79.628 33.0035 78.9048C35.352 78.1816 37.8561 77.575 39.6058 75.8564C40.8811 74.5966 41.6121 72.8546 42.8875 71.5948C44.7072 69.7907 47.3979 69.1764 49.9486 69.0208C52.5824 68.7663 55.2373 69.1976 57.6551 70.2728C58.8557 70.8206 59.9106 71.643 60.7346 72.6738C61.5587 73.7045 62.1287 74.9146 62.3987 76.2063C62.6009 77.4661 62.4454 78.7959 62.8498 80.0168C63.2853 81.3544 64.3351 82.3964 64.9883 83.6484C65.6426 84.993 65.8318 86.5168 65.5264 87.9805C65.221 89.4443 64.4382 90.7653 63.3008 91.736L45.2749 115.019C41.4877 116.45 32.3114 114.723 29.3875 111.908C26.4635 109.093 23.384 101.379 24.636 97.5295Z" fill="#263238"/>
<path d="M62.8264 88.781C62.0488 83.4929 58.0594 77.2484 52.8103 78.2127L36.6041 83.6562C35.0488 83.9517 36.153 86.5569 36.3085 88.1666L39.8313 124.716C39.8313 124.716 37.6383 126.272 36.8607 125.976C36.8164 125.961 36.7684 125.959 36.7234 125.972C36.6783 125.985 36.6385 126.012 36.6094 126.049C36.5803 126.086 36.5634 126.131 36.561 126.178C36.5587 126.224 36.571 126.271 36.5963 126.31C38.5637 129.149 47.7322 141.49 57.2274 137.703C59.3426 136.855 57.0018 130.191 57.2274 127.726L56.9474 121.419C56.7374 118.199 56.6363 116.877 56.6363 116.909C56.6363 116.94 63.3397 115.26 64.0629 106.294C64.4284 101.853 63.6508 94.6522 62.8264 88.781Z" fill="#FFBF9D"/>
<path d="M61.6988 96.9151C61.7229 97.2111 61.6308 97.5049 61.4421 97.7342C61.2534 97.9636 60.9829 98.1105 60.6878 98.1438C60.5441 98.1669 60.3971 98.1609 60.2557 98.1262C60.1144 98.0915 59.9814 98.0288 59.8646 97.9418C59.7479 97.8548 59.6498 97.7453 59.5761 97.6197C59.5025 97.4941 59.4548 97.355 59.4358 97.2106C59.4117 96.9146 59.5037 96.6209 59.6924 96.3916C59.8811 96.1622 60.1516 96.0153 60.4467 95.982C60.5905 95.9589 60.7374 95.9649 60.8788 95.9996C61.0202 96.0343 61.1532 96.097 61.2699 96.184C61.3867 96.271 61.4848 96.3805 61.5584 96.5061C61.6321 96.6317 61.6798 96.7708 61.6988 96.9151V96.9151Z" fill="#263238"/>
<path d="M50.6562 97.6073C50.6824 97.9025 50.5922 98.1963 50.4047 98.4259C50.2173 98.6555 49.9475 98.8026 49.653 98.836C49.5094 98.858 49.3628 98.8512 49.2218 98.816C49.0809 98.7809 48.9483 98.7181 48.8318 98.6313C48.7153 98.5444 48.6172 98.4353 48.5433 98.3103C48.4693 98.1852 48.4209 98.0467 48.401 97.9028C48.3769 97.6068 48.4689 97.313 48.6576 97.0837C48.8463 96.8544 49.1168 96.7075 49.4119 96.6741C49.5552 96.6511 49.7017 96.6571 49.8426 96.6919C49.9835 96.7267 50.116 96.7895 50.2321 96.8766C50.3483 96.9637 50.4456 97.0733 50.5185 97.1988C50.5913 97.3243 50.6382 97.4633 50.6562 97.6073V97.6073Z" fill="#263238"/>
<path d="M62.1032 93.1669C61.9787 93.3768 60.9211 92.7081 59.5991 92.9025C58.2771 93.0969 57.4295 93.999 57.2662 93.8357C57.1029 93.6724 57.2662 93.4002 57.6472 92.988C58.1257 92.4509 58.7799 92.1018 59.4925 92.0035C60.2051 91.9052 60.9294 92.064 61.5355 92.4514C61.971 92.7547 62.1654 93.0736 62.1032 93.1669Z" fill="#263238"/>
<path d="M50.2286 94.1545C50.073 94.3489 49.0388 93.5946 47.6157 93.6568C46.1926 93.719 45.1816 94.52 45.0183 94.3411C44.855 94.1623 45.0883 93.9212 45.5316 93.5635C46.1134 93.0832 46.8382 92.8096 47.5923 92.7858C48.3428 92.7563 49.0817 92.978 49.692 93.4157C50.1353 93.7345 50.2986 94.0612 50.2286 94.1545Z" fill="#263238"/>
<path d="M54.6844 102.53C55.3123 102.273 55.9712 102.101 56.6441 102.017C56.9474 101.962 57.2429 101.877 57.274 101.659C57.278 101.334 57.1801 101.016 56.994 100.749C56.6441 100.018 56.2786 99.2481 55.8897 98.416C54.3344 95.1265 53.2068 92.4203 53.339 92.3581C53.4713 92.2959 54.8321 94.9088 56.3719 98.1905C56.7452 99.007 57.1029 99.7458 57.4373 100.523C57.6647 100.884 57.7557 101.315 57.6939 101.737C57.6583 101.85 57.597 101.954 57.5147 102.041C57.4325 102.127 57.3315 102.193 57.2195 102.234C57.051 102.292 56.876 102.329 56.6985 102.343C56.0369 102.485 55.3608 102.547 54.6844 102.53V102.53Z" fill="#263238"/>
<path d="M56.6363 116.924C52.4719 117.306 48.2831 116.526 44.5361 114.669C44.5361 114.669 47.9966 120.657 56.7919 119.148L56.6363 116.924Z" fill="#FF9A6C"/>
<path d="M50.9595 106.091C51.0983 105.784 51.3122 105.517 51.5817 105.314C51.9114 105.157 52.2858 105.121 52.6393 105.213C53.1645 105.289 53.6504 105.535 54.0235 105.913C54.2066 106.103 54.3355 106.339 54.3971 106.596C54.4586 106.853 54.4504 107.122 54.3734 107.375V107.375C54.2334 107.888 53.4714 108.152 52.9503 108.261C52.4106 108.34 51.8602 108.227 51.395 107.942C51.1927 107.85 51.016 107.71 50.8804 107.534C50.7449 107.357 50.6545 107.151 50.6174 106.931C50.6519 106.625 50.7703 106.335 50.9595 106.091V106.091Z" fill="#FF9A6C"/>
<path d="M51.2082 104.373C51.4027 104.373 51.5115 105.671 52.7169 106.527C53.9222 107.382 55.322 107.126 55.3453 107.305C55.3687 107.483 55.0576 107.585 54.4588 107.647C53.6819 107.718 52.9048 107.511 52.2658 107.063C51.6493 106.638 51.2248 105.987 51.0838 105.252C51.0061 104.715 51.1149 104.373 51.2082 104.373Z" fill="#263238"/>
<path d="M50.1197 89.3719C50.0186 89.7063 48.7899 89.6441 47.3668 89.9318C45.9437 90.2196 44.8161 90.7095 44.6061 90.4062C44.5128 90.274 44.6839 89.9474 45.1272 89.5897C45.7209 89.1473 46.4083 88.8471 47.1363 88.7123C47.8644 88.5774 48.6137 88.6116 49.3265 88.812C49.8708 88.9675 50.1586 89.2086 50.1197 89.3719Z" fill="#263238"/>
<path d="M61.3488 88.7109C61.1233 89.0064 60.1435 88.7965 59.0159 88.8742C57.8883 88.952 56.8929 89.2242 56.644 88.952C56.5352 88.8198 56.644 88.5243 57.0718 88.2288C57.6341 87.8582 58.2883 87.6509 58.9614 87.63C59.6304 87.5818 60.2992 87.7248 60.89 88.0421C61.2944 88.2754 61.4499 88.5554 61.3488 88.7109Z" fill="#263238"/>
<path d="M33.0191 84.9315C33.7967 83.6717 35.3054 83.0263 36.7051 82.4897C42.7504 80.1555 49.0524 78.55 55.4776 77.7072C56.2553 79.0214 55.5398 80.8178 54.3345 81.7743C53.1291 82.7308 51.5738 83.1118 50.1352 83.6484C48.6965 84.185 47.2112 85.0248 46.6124 86.4479C46.0136 87.8711 46.5191 89.7452 45.9592 91.2849C45.0027 93.9445 41.2933 94.7999 40.3679 97.4517C39.6524 99.4658 40.8189 101.604 41.1455 103.72C41.2949 104.793 41.2135 105.886 40.9069 106.926C40.6003 107.965 40.0754 108.927 39.3674 109.748C38.6594 110.569 37.7845 111.229 36.801 111.685C35.8176 112.14 34.7483 112.381 33.6645 112.39C33.229 104.775 32.791 97.164 32.3503 89.5586C32.2181 87.9721 32.1559 86.2613 33.0191 84.9315Z" fill="#263238"/>
<path d="M17.6838 104.163C18.8891 103.082 20.3978 102.149 20.8721 100.609C21.572 98.3616 19.7679 95.7253 20.9344 93.6801C21.992 91.8137 25.1103 91.9148 26.098 90.0096C26.8756 88.5165 25.9813 87.2023 26.269 85.8958C26.5568 84.5894 28.4231 83.4462 29.7451 83.6017L40.119 98.6649C41.0833 103.72 42.0554 106.441 40.9744 109.365C40.2595 110.94 39.7197 112.588 39.3647 114.28C39.1314 115.991 39.5747 117.927 40.9666 118.946C34.7454 119.436 28.9286 116.185 23.5473 113.036L17.8782 109.708C17.2576 109.411 16.7225 108.961 16.3229 108.401C15.4752 107.017 16.4862 105.236 17.6838 104.163Z" fill="#263238"/>
<path d="M23.4152 111.504C23.6322 111.574 23.8567 111.618 24.0839 111.636C24.7327 111.698 25.3872 111.651 26.0203 111.496C27.0308 111.254 27.9609 110.753 28.7187 110.042C29.7198 109.079 30.3478 107.792 30.4918 106.41C30.5853 105.609 30.5165 104.797 30.2896 104.023C30.0108 103.198 29.6237 102.413 29.1387 101.69C28.6244 100.956 28.2233 100.148 27.9489 99.2948C27.8031 98.8585 27.7575 98.3949 27.8154 97.9385C27.8733 97.4822 28.0332 97.0447 28.2833 96.6586C28.8432 95.8809 29.893 95.7176 30.8728 95.3288C31.402 95.1386 31.8624 94.7947 32.1948 94.3412C32.501 93.8562 32.6503 93.2887 32.6226 92.7159C32.4881 91.6178 32.2511 90.5348 31.9149 89.4808C31.7955 88.9693 31.7955 88.4371 31.9149 87.9255C32.0518 87.4097 32.3691 86.96 32.8092 86.658C33.7554 86.1124 34.8276 85.8229 35.9198 85.8181C37.0502 85.7807 38.1526 85.457 39.1237 84.8772C40.0687 84.3011 40.8357 83.4748 41.34 82.4898C41.7539 81.5439 42.0164 80.5388 42.1177 79.5114C42.2256 78.5602 42.4288 77.6223 42.7242 76.7118C43.0518 75.8838 43.5499 75.1339 44.1862 74.5111C45.3599 73.3973 46.8752 72.7123 48.4866 72.5669C49.8302 72.452 51.1788 72.7218 52.3749 73.3446C53.2745 73.8049 54.0854 74.421 54.7701 75.1643C55.3422 75.8131 55.838 76.5254 56.2476 77.2873C56.2476 77.2873 56.2476 77.2328 56.1932 77.124C56.1293 76.9695 56.0566 76.8189 55.9754 76.6729C55.6785 76.1084 55.3156 75.5811 54.8945 75.1021C54.2104 74.3289 53.3941 73.6837 52.4838 73.1968C51.2751 72.5325 49.9017 72.2276 48.5255 72.3181C46.8367 72.4417 45.2416 73.1418 44.0074 74.3011C43.3273 74.958 42.7968 75.7537 42.4521 76.634C42.1437 77.5614 41.9301 78.5176 41.8144 79.488C41.7065 80.4818 41.4441 81.4525 41.0367 82.3653C40.5625 83.2832 39.8475 84.0547 38.9682 84.5972C38.0416 85.1407 36.9935 85.4428 35.9198 85.4759C34.7496 85.4734 33.6002 85.785 32.5914 86.378C32.0868 86.7213 31.7224 87.2347 31.5649 87.8244C31.4287 88.3997 31.4287 88.9989 31.5649 89.5742C31.8943 90.6083 32.1285 91.6703 32.2648 92.747C32.2969 93.247 32.1718 93.7446 31.9071 94.1701C31.6067 94.5646 31.1991 94.8643 30.7329 95.0333C30.274 95.2277 29.7764 95.3599 29.2942 95.5621C28.7922 95.7516 28.3494 96.0709 28.0111 96.4875C27.7364 96.9169 27.5605 97.4019 27.4959 97.9075C27.4314 98.4131 27.4798 98.9268 27.6378 99.4114C27.929 100.292 28.3482 101.126 28.8821 101.884C29.3557 102.572 29.735 103.32 30.0096 104.108C30.23 104.844 30.304 105.615 30.2274 106.379C30.0999 107.709 29.5112 108.953 28.5632 109.894C27.8376 110.597 26.943 111.1 25.9659 111.356C25.1337 111.573 24.2668 111.624 23.4152 111.504V111.504Z" fill="#455A64"/>
<path d="M15.1252 100.796C15.0235 100.948 14.9546 101.12 14.923 101.301C14.8196 101.834 14.9136 102.387 15.1874 102.856C15.3772 103.191 15.6437 103.477 15.9651 103.688C16.3657 103.931 16.8267 104.055 17.2949 104.046C17.8638 104.034 18.4184 103.865 18.8983 103.56C19.3782 103.254 19.765 102.822 20.0167 102.312C20.3125 101.726 20.4644 101.079 20.4599 100.422C20.4411 99.7172 20.2935 99.0214 20.0244 98.3694C19.5345 97.024 18.6324 95.7098 18.6169 94.1389C18.5875 93.7522 18.6364 93.3634 18.7606 92.996C18.8849 92.6285 19.082 92.2899 19.3401 92.0004C19.9706 91.4797 20.7808 91.2283 21.5953 91.3005C22.5017 91.3667 23.4126 91.2719 24.286 91.0206C24.7436 90.8343 25.1302 90.5075 25.3902 90.0874C25.6405 89.6698 25.7971 89.2028 25.849 88.7187C25.8938 87.79 25.818 86.8594 25.6235 85.9503C25.4843 85.0969 25.5347 84.2234 25.7713 83.3918C26.212 81.8043 27.2446 80.4461 28.6564 79.5969C29.9965 78.9142 31.4842 78.5724 32.9879 78.6015C34.3242 78.6045 35.6525 78.3945 36.9228 77.9793C37.9556 77.6004 38.9021 77.0187 39.7068 76.2685C40.323 75.6992 40.8476 75.0382 41.2621 74.3088C41.6269 73.7038 41.8773 73.0369 42.0009 72.3414C41.7693 72.998 41.4805 73.6329 41.1377 74.2388C40.1579 75.8739 38.6489 77.1251 36.8606 77.7849C35.601 78.1703 34.2895 78.3591 32.9723 78.3448C31.4249 78.3013 29.8909 78.6433 28.5086 79.3402C27.024 80.2108 25.928 81.6156 25.4447 83.2674C25.1958 84.1445 25.1401 85.0651 25.2814 85.9658C25.4634 86.8453 25.5391 87.7434 25.5069 88.6409C25.4885 89.0676 25.3533 89.4811 25.1161 89.8363C24.8788 90.1914 24.5487 90.4746 24.1615 90.6551C23.3305 90.8909 22.4644 90.9778 21.6031 90.9117C20.7011 90.8328 19.8044 91.1122 19.1068 91.6893C18.822 92.0137 18.6061 92.3926 18.4724 92.803C18.3387 93.2135 18.29 93.6468 18.3292 94.0767C18.3635 94.8841 18.5564 95.6768 18.8968 96.4097C19.2001 97.1096 19.5345 97.7628 19.7911 98.416C20.0521 99.0353 20.1996 99.6964 20.2266 100.368C20.2373 100.981 20.1041 101.588 19.8378 102.141C19.6121 102.618 19.2601 103.023 18.82 103.314C18.3799 103.605 17.8686 103.769 17.3415 103.79C16.9092 103.805 16.4811 103.7 16.1051 103.486C15.7832 103.298 15.5153 103.031 15.3274 102.709C15.0548 102.276 14.942 101.762 15.0086 101.254C15.0475 100.974 15.1486 100.803 15.1252 100.796Z" fill="#263238"/>
<path d="M80.6268 104.505C80.8118 105.031 80.8118 105.604 80.6268 106.13C80.5242 106.432 80.3548 106.707 80.1313 106.935C79.9078 107.162 79.636 107.337 79.3359 107.445C78.9358 107.563 78.5107 107.567 78.1083 107.457C77.7059 107.347 77.342 107.127 77.0574 106.822C76.7308 106.463 76.5408 106.001 76.5208 105.516C76.5059 104.987 76.5875 104.46 76.7619 103.961C77.0885 102.911 77.765 101.768 77.6639 100.391C77.6148 99.6934 77.4207 99.0134 77.094 98.3948C76.7673 97.7762 76.3151 97.2325 75.7665 96.7985C75.1919 96.3385 74.5346 95.9928 73.8301 95.7798C73.1104 95.5803 72.3683 95.4732 71.6216 95.4609C70.898 95.455 70.1767 95.3795 69.4675 95.2354C68.8055 95.0989 68.2132 94.7325 67.7955 94.2012C67.4257 93.6558 67.218 93.0167 67.1968 92.3581C67.1622 91.7164 67.2145 91.0728 67.3523 90.4451C67.6936 89.2609 67.8818 88.0378 67.9122 86.8057C67.8496 85.7118 67.4624 84.6613 66.8002 83.7884C66.2401 83.0957 65.5541 82.5152 64.7783 82.0776C64.2114 81.7421 63.6684 81.3679 63.153 80.9578C62.7303 80.5959 62.3863 80.1512 62.142 79.6513C62.142 79.6513 62.142 79.6513 62.142 79.7602C62.1727 79.8654 62.2144 79.967 62.2665 80.0635C62.4604 80.4414 62.7243 80.7792 63.0441 81.0589C63.5482 81.4977 64.0865 81.8955 64.6538 82.2487C65.3957 82.69 66.0496 83.2647 66.5824 83.9439C67.1988 84.7807 67.5509 85.7828 67.5934 86.8212C67.5472 88.0255 67.3513 89.2193 67.0101 90.3751C66.8597 91.0327 66.7995 91.7077 66.8313 92.3815C66.8603 93.1072 67.0919 93.8103 67.5001 94.4111C67.9636 95.011 68.6249 95.4271 69.3664 95.5854C70.096 95.7351 70.838 95.8159 71.5827 95.8264C72.3025 95.8359 73.0183 95.9351 73.7135 96.122C74.3733 96.3271 74.9901 96.6512 75.5332 97.0785C76.0443 97.4814 76.4664 97.9859 76.7729 98.5601C77.0794 99.1342 77.2636 99.7657 77.314 100.415C77.4229 101.667 76.8007 102.748 76.4586 103.875C76.2789 104.416 76.1998 104.985 76.2253 105.555C76.2591 106.098 76.482 106.613 76.8552 107.009C77.1746 107.344 77.5818 107.582 78.0301 107.696C78.4784 107.81 78.9498 107.796 79.3903 107.655C79.7122 107.53 80.0013 107.333 80.2358 107.08C80.4702 106.826 80.6439 106.523 80.7434 106.193C80.8844 105.787 80.906 105.35 80.8057 104.933C80.7719 104.781 80.7113 104.636 80.6268 104.505Z" fill="#263238"/>
<path d="M73.1926 165.418V156.818C74.1569 151.988 73.6981 146.265 71.4506 141.856C69.8202 139.014 68.0179 136.274 66.0538 133.651L57.4996 122.539C52.787 125.968 45.4071 123.488 39.077 121.186C39.077 121.186 32.8558 124.646 29.9163 127.897C26.8601 131.318 37.3118 174.128 37.3118 174.128C32.5759 183.6 26.4635 192.014 25.5381 200.646L74.9967 202.551L72.8971 179.875L73.1926 165.418Z" fill="#455A64"/>
<path d="M72.5082 180.116C72.459 179.795 72.446 179.468 72.4693 179.144C72.4693 178.436 72.4693 177.589 72.4693 176.508C72.5082 174.175 72.5548 171.165 72.6093 167.814C72.6637 164.462 72.7648 161.344 72.8737 159.119C72.9281 158.007 72.9825 157.105 73.0292 156.483C73.0346 156.161 73.0763 155.84 73.1536 155.527C73.1851 155.847 73.1851 156.17 73.1536 156.491C73.1536 157.199 73.1536 158.046 73.1536 159.127C73.1147 161.46 73.0603 164.47 73.0059 167.821C72.9514 171.173 72.8581 174.291 72.7492 176.516C72.6948 177.628 72.6404 178.53 72.5859 179.152C72.5981 179.475 72.572 179.799 72.5082 180.116Z" fill="#263238"/>
<path d="M95.099 187.939C95.099 187.939 99.9205 188.204 102.876 190.07C105.831 191.936 110.652 194.845 112.635 198.445C113.545 200.102 110.955 200.452 109.672 199.495C108.389 198.539 106.437 196.719 105.465 196.501L104.493 196.276C105.381 198.284 106.369 200.246 107.456 202.155C108.459 203.71 109.33 206.292 106.313 206.408C106.313 206.408 104.283 209.052 102.23 207.093C102.23 207.093 100.628 209.496 98.0463 206.167C98.0463 206.167 96.5377 208.073 95.9156 207.342C95.2935 206.611 93.2327 205.46 92.6339 203.08C91.7354 200.31 90.6972 197.587 89.5233 194.922L95.099 187.939Z" fill="#FFBF9D"/>
<path d="M203.045 121.108C203.581 121.108 225.659 118.775 225.659 118.775C225.659 118.775 227.533 109.801 227.432 107.468C227.331 105.135 225.76 89.6986 225.76 89.6986L234.026 85.8103C234.026 85.8103 245.077 123.075 242.666 126.17C240.255 129.265 235.721 132.042 235.333 132.057C234.944 132.073 213.94 141.389 199.327 136.544C184.715 131.699 203.045 121.108 203.045 121.108Z" fill="#FFBF9D"/>
<path d="M183.697 141.226C186.947 144.453 192.546 147.136 201.894 144.803C220.371 140.184 234.221 136.249 239.726 133.294C245.232 130.339 243.086 117.134 243.553 116.535C244.945 114.731 243.413 110.858 241.43 110.252C235.776 108.541 225.939 109.218 225.441 109.731C222.54 112.779 225.184 116.481 225.184 116.481L200.821 119.677C197.825 119.537 194.823 119.727 191.87 120.245" fill="#455A64"/>
<path d="M191.87 120.245L192.453 120.12C192.842 120.05 193.417 119.949 194.179 119.856C196.384 119.578 198.608 119.485 200.828 119.576V119.576L225.184 116.31L225.068 116.582C224.268 115.405 223.874 113.998 223.948 112.577C224.014 111.842 224.254 111.133 224.648 110.508C224.846 110.195 225.069 109.898 225.317 109.622C225.414 109.55 225.521 109.492 225.635 109.451L225.915 109.381C226.102 109.334 226.281 109.319 226.46 109.28C229.477 108.932 232.521 108.869 235.55 109.093C237.141 109.19 238.722 109.408 240.279 109.746C240.667 109.832 241.056 109.949 241.461 110.05C241.875 110.182 242.255 110.405 242.573 110.703C243.191 111.29 243.662 112.015 243.949 112.818C244.258 113.623 244.367 114.49 244.268 115.345C244.197 115.791 244.03 116.215 243.778 116.59C243.708 116.667 243.716 116.877 243.708 117.08V117.702C243.762 119.374 243.84 121.077 243.794 122.788C243.806 125.216 243.409 127.63 242.619 129.926C242.214 131.077 241.517 132.103 240.597 132.905C240.121 133.277 239.598 133.586 239.042 133.822C238.529 134.095 237.985 134.305 237.487 134.553C235.356 135.463 233.218 136.21 231.11 136.886C229.003 137.563 226.934 138.216 224.889 138.815C216.755 141.148 209.336 143.038 203.161 144.585C201.686 144.975 200.191 145.284 198.682 145.511C197.33 145.699 195.964 145.772 194.599 145.728C192.407 145.681 190.244 145.211 188.23 144.344C186.967 143.787 185.789 143.054 184.731 142.167C184.358 141.865 184.01 141.535 183.689 141.179C183.689 141.179 184.047 141.521 184.785 142.104C185.857 142.959 187.04 143.666 188.3 144.204C190.302 145.03 192.442 145.471 194.607 145.503C195.957 145.535 197.307 145.452 198.643 145.254C200.142 145.017 201.627 144.701 203.091 144.305C209.313 142.75 216.669 140.837 224.78 138.457C226.81 137.858 228.878 137.221 231.001 136.521C233.124 135.821 235.232 135.082 237.339 134.188C237.852 133.947 238.389 133.737 238.894 133.465C239.414 133.236 239.902 132.944 240.349 132.594C241.217 131.839 241.873 130.872 242.254 129.786C243.02 127.52 243.401 125.141 243.381 122.749C243.428 121.046 243.381 119.358 243.296 117.678V117.041C243.296 116.932 243.296 116.823 243.296 116.706C243.29 116.644 243.29 116.582 243.296 116.52C243.313 116.472 243.334 116.425 243.358 116.38L243.397 116.318C243.616 115.999 243.759 115.634 243.817 115.252C243.908 114.461 243.804 113.66 243.514 112.919C243.253 112.177 242.821 111.505 242.254 110.96C241.978 110.701 241.649 110.507 241.29 110.392C240.901 110.291 240.512 110.182 240.131 110.089C238.594 109.755 237.034 109.54 235.465 109.443C232.467 109.214 229.454 109.271 226.468 109.614C226.289 109.614 226.11 109.661 225.939 109.708L225.69 109.762C225.636 109.783 225.584 109.809 225.534 109.84C225.3 110.095 225.089 110.371 224.904 110.664C224.534 111.236 224.31 111.89 224.251 112.569C224.184 113.906 224.549 115.228 225.293 116.341L225.449 116.582H225.177L200.805 119.693C198.598 119.581 196.385 119.643 194.187 119.879C193.41 119.957 192.842 120.042 192.453 120.097C192.064 120.151 191.87 120.245 191.87 120.245Z" fill="#263238"/>
<path d="M125.904 145.571L115.98 127.741L303.682 23.2676C305.845 22.064 308.397 21.7687 310.777 22.4467C313.158 23.1248 315.171 24.7206 316.375 26.8831L317.226 28.412C318.429 30.5745 318.725 33.1267 318.047 35.5069C317.369 37.8872 315.773 39.9006 313.61 41.1042L125.908 145.578L125.904 145.571Z" fill="#029491"/>
<path d="M283.301 51.2766L260.318 9.984C260.207 9.78412 260.136 9.56429 260.11 9.33705C260.083 9.10981 260.102 8.87961 260.165 8.65961C260.227 8.4396 260.333 8.2341 260.475 8.05483C260.617 7.87556 260.793 7.72603 260.993 7.61478L271.539 1.74513C271.738 1.63388 271.958 1.56308 272.186 1.53678C272.413 1.51049 272.643 1.52921 272.863 1.59188C273.083 1.65455 273.288 1.75995 273.468 1.90204C273.647 2.04413 273.797 2.22013 273.908 2.42001L296.891 43.7126L283.301 51.2766V51.2766Z" fill="#029491"/>
<path d="M238.08 32.0485L254.831 62.1431C255.507 63.359 257.042 63.796 258.258 63.1193L267.444 58.006C268.66 57.3293 269.097 55.795 268.42 54.5791L251.67 24.4845C250.993 23.2686 249.459 22.8316 248.243 23.5083L239.056 28.6216C237.841 29.2983 237.403 30.8326 238.08 32.0485Z" fill="#029491"/>
<path d="M252.877 30.291L263.247 48.9227L284.352 37.1758L273.982 18.5442L252.877 30.291Z" fill="#029491"/>
<path d="M300.935 24.8347C300.99 24.928 264.152 45.5357 218.675 70.8561C173.198 96.1764 136.244 116.629 136.244 116.528C136.244 116.426 173.02 95.8264 218.512 70.4983C264.005 45.1702 300.881 24.7336 300.935 24.8347Z" fill="#263238"/>
<path d="M49.8863 180.015C63.7285 204.9 92.9137 215.009 115.077 202.683C137.24 190.358 144.005 160.185 130.163 135.331C116.321 110.477 87.1436 100.337 64.9727 112.663C42.8019 124.988 36.0519 155.161 49.8863 180.015ZM118.156 142.019C127.854 159.438 123.118 180.567 107.58 189.207C92.0428 197.846 71.5983 190.762 61.901 173.327C52.2037 155.892 56.9396 134.779 72.4693 126.131C87.999 117.484 108.459 124.6 118.156 142.019V142.019Z" fill="#029491"/>
<path d="M147.577 109.94L157.818 128.341C159.18 130.787 162.268 131.667 164.714 130.305L165.543 129.844C167.99 128.482 168.87 125.394 167.508 122.947L157.266 104.547C155.904 102.1 152.817 101.221 150.37 102.582L149.541 103.044C147.094 104.406 146.215 107.493 147.577 109.94Z" fill="#029491"/>
<path d="M167.246 98.9838L177.487 117.384C178.849 119.831 181.937 120.711 184.383 119.349L185.212 118.887C187.659 117.526 188.539 114.438 187.177 111.991L176.935 93.5907C175.573 91.1439 172.486 90.2644 170.039 91.6262L169.21 92.0876C166.763 93.4495 165.884 96.537 167.246 98.9838Z" fill="#029491"/>
<path d="M157.047 104.264C157.148 104.21 159.52 108.386 162.358 113.596C165.196 118.806 167.413 123.052 167.312 123.106C167.211 123.161 164.839 118.993 162 113.775C159.162 108.557 156.946 104.264 157.047 104.264Z" fill="#263238"/>
<path d="M148.018 110.68C148.119 110.625 150.437 114.614 153.205 119.576C155.974 124.537 158.128 128.62 158.034 128.674C157.941 128.729 155.616 124.739 152.878 119.817C150.141 114.894 147.925 110.734 148.018 110.68Z" fill="#263238"/>
<path d="M176.838 93.4313C176.939 93.3769 179.358 97.5295 182.243 102.709C185.128 107.888 187.383 112.142 187.282 112.196C187.181 112.25 184.77 108.09 181.885 102.911C179 97.7317 176.745 93.4858 176.838 93.4313Z" fill="#263238"/>
<path d="M167.343 99.1626C167.436 99.1081 169.808 103.237 172.623 108.386C175.438 113.534 177.654 117.717 177.553 117.803C177.452 117.888 175.096 113.728 172.273 108.58C169.45 103.432 167.242 99.217 167.343 99.1626Z" fill="#263238"/>
<path d="M223.746 71.1127C224.651 71.2193 225.564 70.9851 226.306 70.4557C227.049 69.9263 227.567 69.1396 227.761 68.2487C227.955 67.3579 227.811 66.4267 227.356 65.6365C226.902 64.8462 226.169 64.2536 225.301 63.9739C225.862 63.3995 226.228 62.6633 226.347 61.8694C226.467 61.0755 226.333 60.2642 225.966 59.5504C225.599 58.8365 225.016 58.2563 224.301 57.8917C223.586 57.5272 222.774 57.397 221.981 57.5194C221.948 56.7298 221.712 55.9621 221.294 55.2909C220.877 54.6197 220.293 54.0678 219.6 53.689C218.906 53.3101 218.127 53.1171 217.336 53.1288C216.546 53.1405 215.773 53.3564 215.091 53.7555C214.201 53.0284 213.094 52.6196 211.946 52.5943C210.797 52.5689 209.673 52.9284 208.753 53.6155C207.979 53.4679 207.179 53.5734 206.47 53.9165C205.761 54.2596 205.182 54.822 204.818 55.5203C204.454 56.2186 204.325 57.0156 204.449 57.7931C204.574 58.5706 204.946 59.2872 205.51 59.8368" fill="#263238"/>
<path d="M207.967 57.2394H208.745C212.666 57.2427 216.442 58.7224 219.321 61.3841C222.2 64.0457 223.972 67.6939 224.282 71.6026C224.866 79.138 225.41 87.4667 225.348 91.5105C225.2 99.9091 216.848 101.153 216.848 101.153L217.525 111.216L197.205 110.555L195.517 74.0833C194.802 65.3814 199.258 57.7215 207.967 57.2394Z" fill="#FFBF9D"/>
<path d="M216.918 101.153C213.031 101.143 209.228 100.017 205.961 97.9105C205.961 97.9105 208.652 104.248 217.004 103.517L216.918 101.153Z" fill="#FF9A6C"/>
<path d="M219.686 79.4957C219.689 79.8073 219.568 80.1073 219.352 80.3312C219.135 80.5552 218.839 80.6852 218.528 80.6933C218.376 80.7039 218.223 80.6842 218.079 80.6354C217.935 80.5867 217.802 80.5098 217.688 80.4093C217.573 80.3088 217.48 80.1866 217.414 80.0498C217.347 79.913 217.308 79.7643 217.299 79.6124C217.299 79.3006 217.419 79.0009 217.635 78.7762C217.851 78.5514 218.146 78.4191 218.458 78.407C218.61 78.3965 218.763 78.4164 218.908 78.4657C219.052 78.5149 219.186 78.5925 219.3 78.6938C219.415 78.7952 219.508 78.9183 219.574 79.0559C219.64 79.1936 219.678 79.3431 219.686 79.4957V79.4957Z" fill="#263238"/>
<path d="M222.47 75.7164C222.323 75.8719 221.413 75.2031 220.137 75.2031C218.862 75.2031 217.906 75.8408 217.766 75.6853C217.626 75.5297 217.851 75.3353 218.263 75.032C218.821 74.6487 219.484 74.4477 220.161 74.4566C220.829 74.4538 221.481 74.6665 222.019 75.0632C222.408 75.3664 222.54 75.6542 222.47 75.7164Z" fill="#263238"/>
<path d="M208.092 78.9358C208.098 79.2522 207.979 79.5581 207.76 79.7869C207.542 80.0156 207.241 80.1486 206.925 80.1568C206.773 80.1673 206.621 80.1476 206.477 80.0989C206.333 80.0501 206.2 79.9733 206.085 79.8727C205.971 79.7722 205.878 79.65 205.811 79.5132C205.744 79.3764 205.705 79.2278 205.697 79.0758C205.694 78.7635 205.814 78.4627 206.031 78.2375C206.247 78.0123 206.543 77.8806 206.855 77.8705C207.006 77.8588 207.158 77.8772 207.303 77.9245C207.447 77.9718 207.58 78.0471 207.695 78.1461C207.81 78.2451 207.904 78.3658 207.972 78.5014C208.04 78.6369 208.081 78.7846 208.092 78.9358V78.9358Z" fill="#263238"/>
<path d="M209.826 75.9186C209.678 76.0741 208.768 75.4053 207.493 75.4053C206.218 75.4053 205.261 76.043 205.121 75.8875C204.981 75.732 205.207 75.5375 205.619 75.2343C206.177 74.8509 206.839 74.6499 207.516 74.6588C208.185 74.656 208.837 74.8687 209.375 75.2654C209.764 75.5686 209.896 75.8486 209.826 75.9186Z" fill="#263238"/>
<path d="M214.461 85.4759C215.139 85.2626 215.842 85.1371 216.553 85.1026C216.879 85.1026 217.19 85.0093 217.252 84.7838C217.28 84.4452 217.204 84.1063 217.035 83.8117L216.07 81.3077C214.733 77.7382 213.737 74.8065 213.909 74.7598C214.08 74.7132 215.254 77.5516 216.591 81.1133C216.91 81.992 217.221 82.8319 217.517 83.6328C217.719 84.0314 217.776 84.4875 217.68 84.9237C217.631 85.0389 217.557 85.1415 217.463 85.2237C217.368 85.3059 217.257 85.3655 217.136 85.3981C216.957 85.4513 216.771 85.4775 216.584 85.4759C215.879 85.564 215.166 85.564 214.461 85.4759Z" fill="#263238"/>
<path d="M210.953 70.9727C210.782 71.2993 209.686 70.9727 208.325 70.895C206.964 70.8172 205.829 71.0738 205.704 70.7316C205.65 70.5683 205.891 70.2806 206.381 70.0162C207.013 69.704 207.714 69.5594 208.418 69.5963C209.116 69.621 209.795 69.8303 210.386 70.2028C210.829 70.5061 211.031 70.825 210.953 70.9727Z" fill="#263238"/>
<path d="M222.548 70.4206C222.276 70.7083 221.211 70.4206 219.935 70.4206C218.66 70.4206 217.602 70.615 217.33 70.3039C217.221 70.1562 217.392 69.8607 217.867 69.5885C218.52 69.2459 219.253 69.0823 219.99 69.1141C220.723 69.124 221.44 69.3308 222.066 69.7129C222.517 69.9773 222.665 70.2728 222.548 70.4206Z" fill="#263238"/>
<path d="M223.489 67.7921C223.489 67.7921 221.296 62.543 218.769 61.3143C215.713 59.8212 214.391 63.1729 211.475 62.3486C208.558 61.5242 205.642 60.1011 202.656 62.3486C199.39 64.8059 200.914 66.5401 200.696 70.2573C199.841 85.3126 197.072 89.5586 196.318 82.4664C196.233 81.6887 194.078 81.0666 193.767 77.8005C193.363 73.5467 193.215 68.3754 194.18 65.3581C194.957 62.8151 196.443 61.0577 199.048 59.1369C203.169 56.0885 208.815 56.0263 212.649 56.4384C216.483 56.8506 223.855 61.2287 223.489 67.7921Z" fill="#263238"/>
<path d="M196.847 82.2331C196.838 81.9259 196.767 81.6236 196.639 81.3446C196.51 81.0655 196.326 80.8156 196.097 80.6098C195.869 80.404 195.601 80.2468 195.31 80.1475C195.02 80.0482 194.712 80.0091 194.405 80.0323C192.85 80.1801 191.1 81.0588 191.193 84.2861C191.357 90.0096 197.072 88.6643 197.08 88.4932C197.088 88.3221 196.94 84.6283 196.847 82.2331Z" fill="#FFBF9D"/>
<path d="M195.766 86.378C195.766 86.378 195.673 86.4557 195.502 86.5335C195.269 86.6401 195.005 86.654 194.763 86.5724C194.385 86.349 194.074 86.0285 193.862 85.6442C193.65 85.2599 193.545 84.8259 193.557 84.3872C193.528 83.8988 193.607 83.4099 193.791 82.9563C193.84 82.777 193.932 82.6125 194.06 82.4769C194.187 82.3414 194.346 82.239 194.522 82.1787C194.636 82.144 194.758 82.1507 194.868 82.1976C194.977 82.2446 195.067 82.3288 195.12 82.4353C195.198 82.5908 195.167 82.7075 195.198 82.7152C195.229 82.723 195.315 82.6141 195.26 82.3808C195.23 82.2389 195.146 82.1139 195.027 82.0309C194.949 81.9732 194.859 81.9317 194.764 81.909C194.67 81.8863 194.571 81.8828 194.475 81.8987C194.241 81.9514 194.024 82.0635 193.846 82.2242C193.667 82.385 193.533 82.5888 193.456 82.8163C193.225 83.3173 193.121 83.8675 193.153 84.4183C193.223 85.5692 193.845 86.6346 194.708 86.8523C194.862 86.8929 195.024 86.8979 195.18 86.8669C195.336 86.8359 195.483 86.7698 195.61 86.6735C195.766 86.518 195.789 86.378 195.766 86.378Z" fill="#FF9A6C"/>
<path d="M196.995 71.1438C197.695 71.7145 198.526 72.102 199.413 72.2714C199.859 72.3412 200.314 72.2474 200.696 72.0072C201.078 71.7671 201.36 71.3968 201.489 70.965C201.559 70.5684 201.489 70.1018 201.723 69.7985C201.956 69.4952 202.617 69.5496 203.091 69.6041C204.756 69.7829 206.707 67.9477 207.135 66.3302C207.351 66.6404 207.677 66.8565 208.047 66.9345C208.417 67.0125 208.803 66.9466 209.126 66.7501C209.655 66.4269 210.123 66.0137 210.51 65.5292C210.735 65.2207 211.032 64.9712 211.375 64.8019C211.717 64.6327 212.096 64.5487 212.478 64.5571C212.88 64.6962 213.298 64.7876 213.722 64.8293C214.499 64.7671 214.842 63.8883 214.958 63.1418C215.075 62.3952 215.168 61.5321 215.806 61.1277C216.46 60.8712 217.184 60.852 217.851 61.0732C218.543 61.1821 219.406 61.0188 219.616 60.3422C219.645 60.1614 219.637 59.9768 219.593 59.7991C219.549 59.6215 219.47 59.4545 219.36 59.308C218.897 58.6143 218.214 58.0972 217.421 57.8403C216.627 57.5835 215.771 57.6019 214.989 57.8926C214.714 56.9356 214.16 56.0821 213.398 55.4409C212.636 54.7998 211.701 54.3999 210.711 54.2923C209.721 54.1847 208.721 54.3743 207.839 54.8368C206.957 55.2993 206.233 56.0139 205.759 56.8895C205.153 56.3348 204.422 55.9348 203.628 55.7236C202.835 55.5123 202.002 55.4962 201.201 55.6765C200.399 55.8567 199.653 56.2281 199.027 56.7589C198.4 57.2896 197.911 57.9641 197.601 58.7247C196.901 58.538 196.162 58.5613 195.475 58.7916C194.788 59.022 194.184 59.4493 193.738 60.0204C193.292 60.5915 193.024 61.2811 192.967 62.0034C192.91 62.7257 193.066 63.4488 193.417 64.0828C192.884 64.3459 192.427 64.7402 192.089 65.2285C191.75 65.7168 191.541 66.2832 191.481 66.8745C191.481 68.0565 192.609 69.2075 193.752 68.9275C193.515 69.3933 193.465 69.9322 193.613 70.4335C193.76 70.9348 194.095 71.3605 194.546 71.6232C194.998 71.886 195.533 71.9658 196.042 71.8462C196.551 71.7267 196.995 71.4169 197.282 70.9805" fill="#263238"/>
<path d="M215.409 59.5723C215.409 59.5723 215.409 59.5723 215.409 59.6812C215.409 59.7901 215.409 59.8523 215.37 59.9845C215.29 60.3726 215.148 60.7453 214.95 61.0887C214.635 61.6269 214.201 62.0868 213.683 62.4341C212.997 62.9015 212.179 63.1335 211.35 63.0951L211.443 62.9707C211.611 63.4842 211.569 64.0433 211.327 64.526C211.07 65.0376 210.74 65.5091 210.347 65.9257C210.156 66.1686 209.94 66.3903 209.701 66.5867C209.278 66.8651 208.77 66.9842 208.267 66.923C207.765 66.8617 207.3 66.6241 206.956 66.2524L207.166 66.1901C207.086 66.7844 206.882 67.3551 206.567 67.8655C206.252 68.3759 205.834 68.8145 205.339 69.153C204.795 69.5572 204.134 69.773 203.457 69.7673C202.821 69.7327 202.196 69.5934 201.606 69.3552L201.761 69.2852C201.462 69.9777 200.994 70.5845 200.401 71.0505C200.13 71.2825 199.81 71.4511 199.466 71.5439C199.121 71.6368 198.761 71.6515 198.41 71.587C197.808 71.4562 197.258 71.1524 196.827 70.7131C196.396 70.2737 196.103 69.7179 195.984 69.1141L196.116 69.1763C195.511 69.4897 194.817 69.5884 194.148 69.4563C193.65 69.3613 193.182 69.1509 192.78 68.8419C192.53 68.6458 192.314 68.4092 192.142 68.142C192.079 68.0493 192.032 67.9468 192.002 67.8388C192.219 68.1964 192.501 68.5102 192.834 68.7642C193.23 69.0508 193.689 69.24 194.172 69.3163C194.807 69.4365 195.464 69.332 196.03 69.0208L196.139 68.9586V69.083C196.257 69.645 196.536 70.1605 196.942 70.5666C197.348 70.9726 197.863 71.2515 198.425 71.3693C198.746 71.4253 199.075 71.409 199.389 71.3215C199.702 71.2341 199.992 71.0777 200.237 70.8638C200.794 70.4209 201.233 69.8463 201.513 69.1919L201.559 69.0908H201.668C202.231 69.3172 202.828 69.4486 203.433 69.4796C204.06 69.4847 204.672 69.2854 205.175 68.9119C205.641 68.5921 206.035 68.1786 206.333 67.6979C206.63 67.2173 206.824 66.6799 206.902 66.1201V65.848L207.081 66.0579C207.283 66.2813 207.537 66.452 207.82 66.555C208.103 66.658 208.407 66.6902 208.706 66.649C208.984 66.6118 209.251 66.5107 209.484 66.3534C209.709 66.1725 209.912 65.9663 210.09 65.7391C210.475 65.3423 210.8 64.8918 211.054 64.4015C211.169 64.1832 211.239 63.9443 211.26 63.6986C211.282 63.453 211.254 63.2055 211.179 62.9707L211.132 62.8307H211.28C212.074 62.88 212.863 62.6698 213.527 62.2319C214.038 61.9033 214.468 61.465 214.787 60.9488C215.074 60.5303 215.285 60.0643 215.409 59.5723V59.5723Z" fill="#455A64"/>
<path d="M214.445 89.7452C214.398 89.5352 213.006 89.8774 211.715 88.9287C210.425 87.9799 210.215 86.4557 210.02 86.4946C209.826 86.5335 209.826 86.899 209.966 87.5289C210.157 88.3508 210.634 89.0781 211.311 89.5819C211.958 90.0638 212.766 90.2757 213.566 90.1729C214.165 90.0796 214.476 89.8385 214.445 89.7452Z" fill="#263238"/>
<path d="M257.574 307.324L263.095 326.136C263.095 326.136 284.091 326.835 285.437 330.218L249.307 342.225L239.493 313.258L257.574 307.324Z" fill="#455A64"/>
<path d="M251.415 328.29C251.103 328.511 250.884 328.84 250.799 329.213C250.714 329.586 250.77 329.977 250.956 330.312C251.165 330.631 251.489 330.859 251.861 330.947C252.232 331.035 252.624 330.978 252.954 330.786C253.285 330.55 253.516 330.2 253.604 329.804C253.692 329.408 253.629 328.993 253.429 328.64C253.175 328.328 252.811 328.126 252.413 328.077C252.014 328.028 251.612 328.135 251.29 328.375" fill="#E0E0E0"/>
<path d="M283.399 328.857C283.399 328.857 285.242 329.021 285.437 330.218L249.307 342.225L248.436 339.262L283.368 328.842" fill="#263238"/>
<path d="M263.616 325.755C263.67 325.933 262.838 326.307 262.138 327.162C261.438 328.018 261.244 328.912 261.057 328.896C260.871 328.881 260.801 327.776 261.641 326.758C262.481 325.739 263.6 325.583 263.616 325.755Z" fill="white"/>
<path d="M267.924 326.058C268.025 326.221 267.364 326.773 267.007 327.714C266.649 328.655 266.75 329.511 266.571 329.557C266.392 329.604 265.949 328.647 266.408 327.481C266.867 326.314 267.87 325.895 267.924 326.058Z" fill="white"/>
<path d="M271.587 329.876C271.439 329.969 270.903 329.168 271.035 328.056C271.167 326.944 271.859 326.276 271.984 326.4C272.108 326.524 271.766 327.178 271.673 328.126C271.579 329.075 271.758 329.783 271.587 329.876Z" fill="white"/>
<path d="M261.882 321.61C261.882 321.796 260.972 321.82 260 322.216C259.028 322.613 258.351 323.188 258.211 323.072C258.071 322.955 258.608 322.076 259.767 321.617C260.925 321.159 261.928 321.439 261.882 321.61Z" fill="white"/>
<path d="M173.323 307.488L165.461 325.451C165.461 325.451 181.084 339.449 179.956 342.933L144.573 328.935L155.67 300.442L173.323 307.488Z" fill="#455A64"/>
<path d="M155.126 319.596C154.745 319.566 154.367 319.677 154.063 319.907C153.759 320.138 153.55 320.473 153.477 320.848C153.434 321.227 153.537 321.609 153.765 321.915C153.993 322.222 154.33 322.429 154.706 322.496C155.11 322.526 155.511 322.406 155.832 322.16C156.153 321.913 156.372 321.557 156.448 321.159C156.448 320.381 155.74 319.494 154.978 319.603" fill="#E0E0E0"/>
<path d="M179.264 340.584C179.264 340.584 180.571 341.899 179.956 342.917L144.573 328.92L145.81 326.097L179.249 340.561" fill="#263238"/>
<path d="M166.099 325.498C166.029 325.669 165.134 325.405 164.061 325.622C162.988 325.84 162.249 326.4 162.117 326.26C161.985 326.12 162.638 325.234 163.937 324.992C165.235 324.751 166.207 325.35 166.099 325.498Z" fill="white"/>
<path d="M169.209 328.5C169.209 328.679 168.323 328.679 167.444 329.176C166.565 329.674 166.098 330.382 165.889 330.312C165.679 330.242 165.997 329.215 167.094 328.616C168.19 328.018 169.271 328.336 169.209 328.5Z" fill="white"/>
<path d="M169.567 333.772C169.396 333.772 169.497 332.792 170.344 332.022C171.192 331.253 172.117 331.19 172.133 331.361C172.149 331.532 171.449 331.844 170.788 332.489C170.127 333.134 169.746 333.827 169.567 333.772Z" fill="white"/>
<path d="M167.444 321.229C167.312 321.353 166.612 320.809 165.609 320.451C164.605 320.093 163.727 320.14 163.696 319.961C163.664 319.782 164.636 319.448 165.811 319.837C166.985 320.225 167.584 321.104 167.444 321.229Z" fill="white"/>
<path d="M186.566 208.804L174.171 259.087C174.171 259.087 151.813 296.725 148.026 315.56L168.478 323.6C168.478 323.6 183.355 287.323 187.717 280.666C189.68 277.683 191.936 274.903 194.452 272.369C196.087 270.746 197.26 268.717 197.85 266.49L207.236 230.617L186.566 208.804Z" fill="#263238"/>
<path d="M181.286 200.763C181.286 200.763 183.012 214.232 195.976 220.204L223.287 264.686C223.287 264.686 225.426 279.15 229.508 291.336C233.591 303.521 241.842 327.007 241.842 327.007L264.308 318.608L249.992 269.663L247.659 252.686L225.371 195.918L206.225 184.44L181.286 200.763Z" fill="#263238"/>
<path d="M181.286 200.763L181.698 200.483L182.935 199.658L187.787 196.455L206.186 184.362L206.249 184.323L206.311 184.362L225.472 195.817V195.864L247.806 252.578V252.616C248.545 257.982 249.362 263.729 250.139 269.593C254.028 282.813 258.149 296.958 262.411 311.531C263.1 313.88 263.785 316.213 264.464 318.53L264.518 318.709L264.339 318.771L241.873 327.17L241.678 327.24L241.616 327.045C237.728 315.762 233.964 304.898 230.41 294.594C229.516 292.02 228.637 289.469 227.906 286.919C227.175 284.368 226.514 281.833 225.916 279.329C224.733 274.321 223.785 269.429 223.038 264.686V264.748L195.883 220.251L195.929 220.29C192.645 218.754 189.728 216.532 187.375 213.773C185.651 211.748 184.235 209.478 183.176 207.038C182.52 205.532 182 203.971 181.62 202.372C181.488 201.844 181.411 201.431 181.364 201.152C181.317 200.872 181.309 200.732 181.309 200.732C181.309 200.732 181.309 200.872 181.395 201.144C181.481 201.416 181.527 201.828 181.675 202.365C182.076 203.942 182.612 205.482 183.277 206.968C184.35 209.383 185.77 211.628 187.492 213.633C189.853 216.363 192.769 218.558 196.046 220.072V220.072L223.411 264.522V264.561C224.189 269.289 225.122 274.173 226.304 279.173C226.903 281.67 227.556 284.197 228.295 286.74C229.034 289.283 229.905 291.818 230.799 294.392C234.369 304.696 238.125 315.56 242.028 326.836L241.772 326.719L264.238 318.32L264.114 318.561C263.44 316.244 262.755 313.911 262.061 311.562L249.805 269.616C249.027 263.752 248.203 258.006 247.472 252.64V252.686L225.223 195.918L225.286 195.988L206.155 184.486H206.272L187.873 196.525L182.974 199.682L181.714 200.498L181.286 200.763Z" fill="#455A64"/>
<path d="M193.316 104.668C193.316 104.668 186.768 109.708 183.588 115.338C179.777 122.08 179.365 132.073 179.249 147.595C179.132 161.95 181.278 165.939 180.454 171.352C178.829 181.92 177.623 217.389 177.623 217.389C177.623 217.389 198.62 209.325 202.695 205.724L206.793 202.162L233.07 210.849L227.766 178.561L224.127 138.317L219.461 116.971L218.683 108.595L196.116 99.5281L193.316 104.668Z" fill="#455A64"/>
<path d="M217.836 108.152C218.108 108.207 217.19 110.05 215.573 112.756L215.503 112.865L215.378 112.818C213.1 111.932 210.082 110.82 206.785 109.614C203.068 108.261 199.709 107.001 197.306 106.021C196.1 105.532 195.136 105.119 194.475 104.816C194.124 104.68 193.786 104.514 193.464 104.318C193.833 104.401 194.193 104.521 194.537 104.676L197.407 105.757L206.925 109.233C210.222 110.439 213.232 111.566 215.479 112.53L215.293 112.593C216.988 109.941 217.991 108.191 217.836 108.152Z" fill="#263238"/>
<path d="M244.991 91.3861C244.991 91.3861 243.327 88.7965 241.756 86.4091C240.185 84.0217 237.806 82.8474 237.425 81.6032C237.044 80.359 234.952 74.8143 234.617 73.4379C234.327 72.1048 234.191 70.7427 234.213 69.3785C234.213 69.3785 235.932 68.6475 236.756 71.1049C237.254 72.5824 238.84 77.5983 239.182 77.8471C239.524 78.096 239.96 77.7305 239.96 77.7305C239.253 75.8524 238.643 73.9395 238.132 71.9992C238.055 71.0894 238.373 65.0548 238.373 65.0548C238.8 64.9688 239.243 65.0384 239.622 65.251C240.002 65.4636 240.292 65.805 240.442 66.2135C241.258 67.7688 241.29 71.657 241.29 71.657L242.526 75.9963L242.091 71.7037L242.713 63.8105C243.317 63.8967 243.88 64.1668 244.325 64.5843C244.77 65.0017 245.076 65.5461 245.201 66.1435C245.722 68.2743 245.03 71.2449 245.38 71.8748C245.73 72.5047 246.111 76.3152 246.111 76.3152C246.111 76.3152 246.539 67.0611 247.526 66.7967C248.514 66.5323 249.323 67.5122 249.183 69.3785C249.043 71.2449 249.004 75.1954 249.517 76.9373C250.03 78.6792 255.295 85.4915 254.867 88.4776C254.605 90.2819 254.442 92.0991 254.377 93.9212H245.357L244.991 91.3861Z" fill="#FFBF9D"/>
<path d="M213.349 114.692C213.854 114.887 235.403 120.221 235.403 120.221C235.403 120.221 240.216 112.445 240.924 110.19C241.632 107.934 245.419 92.9102 245.419 92.9102L254.525 92.0548C254.525 92.0548 252.192 130.852 248.895 132.944C245.598 135.036 240.341 136.093 239.999 135.977C239.656 135.86 216.708 137.454 204.616 127.928C192.523 118.402 213.349 114.692 213.349 114.692Z" fill="#FFBF9D"/>
<g opacity="0.3">
<path d="M197.904 135.23C200.217 137.848 203.303 139.662 206.715 140.409C212.431 141.669 224.601 143.901 224.601 143.901L224.01 137.928L197.57 135.098" fill="black"/>
</g>
<path d="M188.308 127.018C190.268 131.155 194.623 135.572 204.196 136.575C223.147 138.535 237.495 139.577 243.692 138.644C249.89 137.711 252.355 124.592 253.024 124.187C254.953 122.974 254.828 118.806 253.164 117.562C248.436 114.024 238.957 111.341 238.319 111.628C234.547 113.502 235.776 117.888 235.776 117.888L211.747 112.585C208.979 111.434 206.091 110.594 203.138 110.081" fill="#455A64"/>
<path d="M203.138 110.081C203.138 110.081 203.34 110.081 203.729 110.159C204.118 110.236 204.701 110.33 205.448 110.493C207.615 110.985 209.737 111.656 211.793 112.499L235.807 117.725L235.605 117.943C235.249 116.565 235.359 115.108 235.916 113.798C236.223 113.127 236.687 112.541 237.269 112.087C237.564 111.857 237.879 111.654 238.21 111.481C238.324 111.447 238.441 111.428 238.56 111.426H238.848C239.042 111.426 239.213 111.488 239.4 111.519C242.355 112.218 245.237 113.195 248.008 114.436C249.469 115.072 250.88 115.815 252.231 116.66C252.566 116.877 252.9 117.119 253.234 117.352C253.58 117.615 253.862 117.952 254.059 118.339C254.438 119.103 254.635 119.944 254.634 120.797C254.654 121.66 254.462 122.514 254.074 123.285C253.859 123.683 253.556 124.026 253.188 124.288C253.094 124.335 253.032 124.537 252.954 124.724L252.752 125.307C252.239 126.862 251.726 128.527 251.104 130.129C250.289 132.426 249.095 134.571 247.573 136.474C247.021 137.198 246.317 137.791 245.511 138.213C244.705 138.635 243.816 138.875 242.907 138.916C242.324 139.002 241.741 139.017 241.165 139.064C238.832 139.204 236.593 139.173 234.376 139.11C232.16 139.048 229.99 138.932 227.883 138.799C219.43 138.255 211.848 137.485 205.486 136.824C203.967 136.691 202.456 136.473 200.961 136.171C199.634 135.887 198.333 135.492 197.072 134.989C195.03 134.196 193.158 133.018 191.559 131.521C190.56 130.565 189.702 129.473 189.008 128.278C188.76 127.868 188.544 127.439 188.363 126.995C188.363 126.995 188.58 127.438 189.078 128.239C189.797 129.404 190.667 130.469 191.668 131.404C193.266 132.869 195.129 134.015 197.158 134.779C198.42 135.266 199.721 135.648 201.046 135.922C202.537 136.208 204.043 136.413 205.556 136.536C211.918 137.166 219.5 137.905 227.937 138.434C230.052 138.558 232.214 138.667 234.423 138.722C236.631 138.776 238.894 138.807 241.181 138.675C241.748 138.621 242.332 138.605 242.899 138.519C243.466 138.49 244.026 138.382 244.563 138.201C245.638 137.786 246.586 137.1 247.316 136.21C248.806 134.343 249.973 132.24 250.769 129.989C251.391 128.433 251.897 126.793 252.41 125.191L252.628 124.584C252.628 124.491 252.705 124.39 252.752 124.281C252.78 124.221 252.814 124.163 252.853 124.11C252.883 124.072 252.917 124.038 252.954 124.009L253.009 123.962C253.331 123.738 253.598 123.443 253.786 123.099C254.15 122.376 254.326 121.574 254.3 120.766C254.302 119.979 254.124 119.202 253.779 118.495C253.609 118.161 253.367 117.869 253.071 117.64C252.737 117.414 252.418 117.173 252.083 116.963C250.752 116.125 249.358 115.389 247.915 114.762C245.175 113.527 242.324 112.553 239.4 111.854C239.221 111.854 239.042 111.776 238.871 111.761H238.614H238.443C238.137 111.924 237.846 112.114 237.572 112.328C237.031 112.737 236.596 113.27 236.305 113.883C235.79 115.114 235.683 116.477 236.002 117.772L236.072 118.044L235.799 117.982L211.824 112.616C209.787 111.759 207.686 111.062 205.541 110.532C204.763 110.353 204.227 110.229 203.838 110.151C203.449 110.073 203.138 110.081 203.138 110.081Z" fill="#263238"/>
<path d="M243.692 125.393C243.14 125.256 242.614 125.027 242.137 124.716C240.945 124.051 239.846 123.23 238.871 122.274C237.891 121.322 237.034 120.251 236.32 119.086C235.996 118.609 235.747 118.084 235.582 117.531C236.647 119.101 237.841 120.581 239.151 121.956C240.559 123.235 242.079 124.385 243.692 125.393V125.393Z" fill="#263238"/>
<path d="M74.5067 189.44C74.5067 189.44 79.3281 189.697 82.2832 191.571C85.2382 193.445 90.0597 196.338 92.0427 199.946C92.9526 201.603 90.363 201.952 89.0876 200.988C87.8123 200.024 85.8448 198.22 84.8728 197.994L83.9007 197.776C84.787 199.783 85.7759 201.743 86.8635 203.648C87.8667 205.203 88.7377 207.785 85.7282 207.909C85.7282 207.909 83.6907 210.553 81.6377 208.594C81.6377 208.594 80.0358 210.989 77.454 207.668C77.454 207.668 75.9531 209.566 75.3232 208.842C74.6933 208.119 72.6403 206.961 72.0415 204.581C71.148 201.809 70.1097 199.086 68.9309 196.423L74.5067 189.44Z" fill="#FFBF9D"/>
<path d="M33.478 126.038C31.0065 126.834 28.8735 128.436 27.4201 130.587C25.5692 133.434 25.0016 138.364 25.5304 142.034C26.6502 149.772 30.1963 162.829 32.1948 171.212C32.8792 174.105 34.2867 179.284 38.416 182.029L67.8812 199.697L75.7588 188.033L48.8988 166.142L43.5874 136.14L33.478 126.038Z" fill="#455A64"/>
<path d="M28.3843 155.527C28.4247 155.625 28.4559 155.726 28.4776 155.83L28.7264 156.74C28.9364 157.564 29.2319 158.746 29.6207 160.263C30.3984 163.373 31.5026 167.79 32.8791 173.288C33.6782 176.283 35.3709 178.963 37.7316 180.971C39.0802 182.051 40.5219 183.009 42.0398 183.833L46.7757 186.695L67.9978 199.511L67.7256 199.573L70.564 195.366L75.6032 187.877L75.6421 188.149L49.0231 166.227H48.9765V166.173C47.219 158.777 45.9436 152.719 45.1349 148.505C44.7383 146.397 44.4583 144.756 44.2794 143.636C44.2017 143.092 44.1395 142.664 44.0928 142.361C44.0462 142.058 44.0384 141.926 44.0384 141.926C44.0806 142.066 44.1144 142.209 44.1395 142.353C44.1939 142.657 44.2717 143.077 44.365 143.621C44.575 144.733 44.8782 146.374 45.3137 148.473C46.1614 152.673 47.4834 158.715 49.2797 166.103L49.2253 166.017L75.891 187.838L76.0309 187.955L75.9298 188.103L70.8907 195.591L68.0522 199.798L67.9511 199.954L67.7801 199.861L46.5891 187.006L41.861 184.136C40.333 183.303 38.881 182.338 37.5217 181.251C35.1201 179.195 33.4074 176.45 32.6147 173.389C31.2849 167.876 30.2195 163.42 29.5041 160.333C29.1541 158.777 28.8742 157.619 28.6798 156.794L28.4542 155.838C28.4237 155.736 28.4003 155.632 28.3843 155.527Z" fill="#263238"/>
<path d="M28.8665 130.183C29.0494 130.063 29.2521 129.976 29.4653 129.926C30.0298 129.752 30.607 129.622 31.1917 129.538C33.1422 129.237 35.1381 129.507 36.9385 130.315C38.6787 131.223 40.1567 132.561 41.2312 134.204C41.5569 134.7 41.8182 135.235 42.0088 135.798C42.0923 135.998 42.1397 136.211 42.1488 136.428C41.8127 135.714 41.4255 135.025 40.9901 134.367C39.8832 132.834 38.4348 131.58 36.7597 130.704C35.0222 129.934 33.1116 129.639 31.2228 129.849C29.7686 129.965 28.8898 130.253 28.8665 130.183Z" fill="#263238"/>
</svg>
