<svg width="76" height="93" viewBox="0 0 76 93" fill="none" xmlns="http://www.w3.org/2000/svg">
<path d="M59.967 62.7647L53.3805 61.3974L61.7179 21.2862C62.0281 19.1831 61.566 17.0387 60.4173 15.2499C49.9205 0.717884 32.8455 6.62076 30.2276 19.1769L22.7239 55.0276L16.1374 53.6519L24.5498 13.2823C24.9833 11.1939 25.8763 9.2282 27.1641 7.52793C28.4519 5.82767 30.1022 4.43552 31.9951 3.45255C53.2054 -7.47776 71.0057 9.51383 67.379 26.9306L59.967 62.7647Z" fill="#E0E0E0"/>
<path d="M59.967 62.7646C59.967 62.7646 60.0088 62.5145 60.1088 62.0476C60.2088 61.5807 60.3422 60.872 60.5257 59.9632L62.1931 51.9844C62.9102 48.5244 63.7772 44.2973 64.7861 39.3866L66.4535 31.5328C66.9705 28.7481 67.8292 25.83 67.8626 22.6785C67.9127 19.3792 67.2113 16.1118 65.8115 13.1238C65.6281 12.7403 65.4531 12.3401 65.2613 11.9566L64.5943 10.831C64.1401 10.0769 63.6418 9.35032 63.1019 8.65498C62.8351 8.28814 62.5183 7.97132 62.2265 7.62948C61.9347 7.28765 61.6512 6.93748 61.3094 6.63734C60.6614 5.9913 59.9706 5.38965 59.2417 4.83646C57.7626 3.67894 56.1435 2.71252 54.4227 1.96007L53.0803 1.45982L52.3217 1.2097L51.6213 1.02628L50.2123 0.659433C49.7287 0.551047 49.2451 0.501022 48.7616 0.417648C44.7399 -0.181165 40.631 0.343999 36.8892 1.93505C33.9186 3.19725 31.26 5.09378 29.0997 7.49175C26.9393 9.88972 25.3295 12.7311 24.3831 15.8168C23.7745 17.9428 23.3826 20.1689 22.9073 22.3867C21.0564 31.2826 19.1306 40.4955 17.1713 49.9C16.9045 51.159 16.646 52.4012 16.3876 53.6602L16.2625 53.4684L22.849 54.8441L22.6656 54.9692C24.1496 47.8407 25.6087 40.8623 27.0177 34.1257C27.7236 30.7407 28.4211 27.4058 29.1104 24.1208L30.1275 19.2351C30.4847 17.6214 31.0686 16.0663 31.8617 14.6162C33.4688 11.8177 35.8877 9.57324 38.7984 8.17975C39.157 8.02134 39.4988 7.82958 39.874 7.70452L40.9745 7.321C41.7121 7.09922 42.4643 6.92928 43.2256 6.81242C43.9818 6.69751 44.7452 6.63622 45.51 6.629C45.8852 6.629 46.2687 6.629 46.6439 6.67902H47.2025L47.7611 6.77073C49.2285 6.9707 50.6601 7.37773 52.0132 7.97966C53.3206 8.58175 54.5451 9.34953 55.6566 10.2641C57.782 12.0584 59.4004 14.3782 60.3506 16.9924C61.2684 19.439 61.5356 22.0819 61.1259 24.6628L60.9759 25.5882C60.9175 25.8884 60.8508 26.1885 60.7924 26.4886L60.4173 28.2728C60.1672 29.4484 59.9254 30.599 59.6919 31.7329C58.7415 36.2517 57.866 40.4121 57.0823 44.1556C55.4982 51.6592 54.2643 57.4954 53.4472 61.4056L53.4055 61.3473L58.4079 62.4061L59.6252 62.6729L60.0254 62.7646L59.6336 62.6896L58.4246 62.4561L53.4222 61.439V61.3889L56.9739 44.1306C57.7493 40.3787 58.6414 36.2184 59.5502 31.6912C59.7836 30.5656 60.0254 29.4067 60.2672 28.2312C60.3839 27.6475 60.5089 27.0473 60.634 26.4553C60.7007 26.1552 60.7591 25.855 60.8258 25.5465C60.8925 25.238 60.9175 24.9379 60.9675 24.6377C61.367 22.0952 61.0998 19.4925 60.1922 17.0841C59.2516 14.5128 57.6532 12.2332 55.5566 10.4725C54.4572 9.57351 53.2467 8.81973 51.9548 8.22978C50.6266 7.64443 49.2237 7.24601 47.7861 7.04587L47.2359 6.9625H46.6772C46.3104 6.9625 45.9436 6.91247 45.5684 6.9625C44.0595 6.97952 42.5607 7.20968 41.1162 7.64616L40.0324 8.02968C39.6734 8.16468 39.3226 8.32058 38.9818 8.49657C36.1224 9.86369 33.7488 12.0715 32.1786 14.8246C31.407 16.2452 30.8453 17.7702 30.5111 19.3518C30.1776 20.9693 29.8385 22.5979 29.4939 24.2376C28.8102 27.5225 28.1155 30.8574 27.4096 34.2424L23.0658 55.0859V55.2443H22.9073L16.3208 53.8686H16.1708V53.7102C16.4292 52.4679 16.6877 51.209 16.9545 49.95C18.9221 40.5205 20.8397 31.3077 22.6989 22.4367C23.1741 20.2106 23.5327 18.0012 24.183 15.8335C24.8602 13.7146 25.8282 11.6999 27.0594 9.84723C29.4988 6.26437 32.9208 3.46197 36.9142 1.77664C40.7045 0.169815 44.8652 -0.358205 48.9367 0.2509C49.4286 0.334274 49.9205 0.392636 50.4041 0.492685L52.0715 0.926229L52.9637 1.2097L54.2976 1.70994L54.9146 1.96841C56.5458 2.70764 58.0825 3.63974 59.4918 4.74475C60.2226 5.31094 60.9187 5.92068 61.5761 6.57064C61.8392 6.85687 62.0896 7.15452 62.3265 7.46274C62.6183 7.81291 62.9435 8.12973 63.2019 8.49657C63.751 9.20236 64.2577 9.94013 64.7193 10.706L65.3863 11.8399C65.5864 12.2317 65.7532 12.6736 65.945 13.0238C67.351 16.0478 68.0495 19.3525 67.9876 22.6868C67.9876 25.8717 67.0788 28.7981 66.5536 31.5911C66.0283 34.3842 65.4114 37.0104 64.8861 39.47C63.8523 44.3807 62.9518 48.6411 62.2265 52.0677C61.5011 55.4944 60.9258 58.1957 60.559 60.0133L60.1171 62.0726C60.0254 62.5395 59.967 62.7646 59.967 62.7646Z" fill="#263238"/>
<path d="M13.2954 28.6795L72.1359 40.9398C72.9455 41.1085 73.6549 41.5919 74.1081 42.2836C74.5613 42.9754 74.7211 43.8188 74.5524 44.6284L65.2564 89.2424C65.1031 89.9784 64.6637 90.6233 64.0348 91.0353C63.4059 91.4473 62.6391 91.5926 61.9031 91.4393L2.78515 79.1212L13.2954 28.6795V28.6795Z" fill="#455A64"/>
<g opacity="0.3">
<path d="M13.3262 28.7269L71.8565 40.9226C72.7484 41.1084 73.5299 41.6409 74.0291 42.403C74.5283 43.165 74.7044 44.0942 74.5186 44.986L65.3519 88.9797C65.1814 89.7979 64.6928 90.5149 63.9936 90.973C63.2945 91.431 62.442 91.5926 61.6237 91.4221L2.81592 79.1686L13.3262 28.7269V28.7269Z" fill="black"/>
</g>
<path d="M13.7966 28.7857L64.5484 39.3606C65.4273 39.5437 66.1974 40.0685 66.6894 40.8194C67.1813 41.5704 67.3548 42.486 67.1717 43.3649L58.1972 86.4362C57.9717 87.5186 57.3254 88.467 56.4006 89.0729C55.4758 89.6788 54.3482 89.8924 53.2658 89.6669L3.42811 79.2825C2.97793 79.1887 2.55061 79.0071 2.17059 78.7482C1.79057 78.4893 1.4653 78.158 1.21331 77.7734C0.961307 77.3887 0.787524 76.9582 0.701909 76.5064C0.616293 76.0546 0.620512 75.5903 0.714314 75.1401L9.8249 31.4159C10.0068 30.5426 10.5261 29.7764 11.2698 29.2839C12.0135 28.7914 12.9216 28.6124 13.7966 28.7857Z" fill="#455A64"/>
<g opacity="0.3">
<path d="M42.8253 56.5368C43.022 55.594 43.0274 54.6213 42.8413 53.6764C42.6552 52.7315 42.2812 51.8335 41.7416 51.0358C41.202 50.2381 40.5078 49.5568 39.7 49.0323C38.8923 48.5079 37.9874 48.1509 37.0391 47.9826C35.2095 47.6811 33.3338 48.0885 31.794 49.1217C30.2542 50.1549 29.1663 51.7363 28.7518 53.5437C28.4232 55.0808 28.6083 56.6833 29.2785 58.1051C29.9487 59.5269 31.0671 60.6894 32.4619 61.4142L25.8337 70.1767L37.9312 72.9281L36.2638 62.2145C37.8276 62.1152 39.3159 61.5062 40.5008 60.4809C41.6858 59.4555 42.5023 58.0701 42.8253 56.5368V56.5368Z" fill="black"/>
</g>
<path d="M58.3994 85.7926C58.3161 85.7926 60.117 76.9883 62.4181 66.1664C64.7192 55.3445 66.6618 46.5736 66.7452 46.5902C66.8286 46.6069 65.0277 55.4028 62.7266 66.2414C60.4254 77.08 58.4828 85.8093 58.3994 85.7926Z" fill="#263238"/>
<path d="M54.2976 38.8447C54.2976 38.9281 46.5189 37.4857 36.9642 35.6265C27.4096 33.7672 19.6641 32.1914 19.6808 32.1081C19.6975 32.0247 27.4596 33.4587 37.0226 35.318C46.5856 37.1772 54.3143 38.728 54.2976 38.8447Z" fill="white"/>
<path d="M27.7262 57.3453C27.7262 57.3453 27.6261 57.1786 27.5261 56.8451C27.3828 56.3759 27.2933 55.8921 27.2593 55.4027C27.1275 53.7689 27.4906 52.1333 28.3015 50.7088C29.1262 49.2932 30.354 48.1554 31.8282 47.4405C32.2717 47.2282 32.7354 47.0606 33.2122 46.9403C33.3848 46.8865 33.565 46.8612 33.7457 46.8652C33.7457 46.9236 33.0037 47.0737 31.9282 47.6406C30.5293 48.3774 29.3688 49.4968 28.5819 50.8682C27.7951 52.2396 27.4145 53.8065 27.4844 55.386C27.5261 56.6033 27.7845 57.3286 27.7262 57.3453Z" fill="white"/>
<path d="M29.8108 61.239C29.7524 61.3057 29.3689 61.0472 28.977 60.6637C28.5852 60.2802 28.285 59.9217 28.3434 59.83C28.4018 59.7383 28.7853 60.0301 29.1771 60.4053C29.569 60.7805 29.8691 61.239 29.8108 61.239Z" fill="white"/>
<path d="M47.6109 1.82675C47.6109 1.82675 47.1773 1.82675 46.3936 1.74338C45.2822 1.67389 44.167 1.69341 43.0587 1.80174C39.4102 2.13153 35.9305 3.4906 33.0242 5.72081C30.118 7.95102 27.9049 10.9607 26.6424 14.3995C26.2554 15.4354 25.9515 16.5004 25.7336 17.5844C25.5835 18.3514 25.5168 18.785 25.4918 18.785C25.4792 18.6798 25.4792 18.5734 25.4918 18.4682C25.4918 18.2597 25.4918 17.9513 25.6002 17.5594C25.778 16.4577 26.0571 15.3749 26.4339 14.3245C27.6599 10.8099 29.8868 7.73046 32.8407 5.46544C35.7946 3.20043 39.3463 1.84868 43.0587 1.57663C44.1694 1.48714 45.2861 1.50389 46.3936 1.62665C46.7855 1.62665 47.0856 1.7267 47.294 1.75172C47.4027 1.76147 47.5094 1.78674 47.6109 1.82675V1.82675Z" fill="white"/>
<path d="M24.0997 24.171C24.0788 23.5389 24.1633 22.9077 24.3498 22.3034C24.4326 21.6795 24.6185 21.0737 24.9 20.5109C24.9259 21.1399 24.8441 21.7686 24.6583 22.3701C24.5758 22.9978 24.3869 23.6068 24.0997 24.171V24.171Z" fill="white"/>
</svg>
