<svg width="557" height="404" viewBox="0 0 557 404" fill="none" xmlns="http://www.w3.org/2000/svg">
<path d="M475.732 357.522C468.007 359.792 459.411 362.054 450.959 363.386C442.938 364.383 434.086 366.176 425.55 366.054C417.015 365.932 408.791 363.868 402.033 357.152C395.108 348.954 396.829 337.774 405.289 330.064C439.127 314.938 474.076 299.418 511.766 299.015C519.728 298.928 527.741 300.628 534.842 304.31C547.706 311.004 556.416 323.881 556.65 338.492C556.817 366.183 526.727 369.81 500.04 364.824C491.147 363.16 482.634 360.533 475.777 357.512C475.767 357.507 475.754 357.509 475.732 357.522Z" fill="#4761FF"/>
<path d="M43.084 249.904C38.0638 239.032 6.88653 171.519 36.8744 137.959C64.1915 107.384 128.186 120.744 165.154 138.103C222.628 165.074 222.007 205.061 261.175 208.858C309.78 213.572 332.028 154.066 383.628 162.196C404.374 165.464 430.961 179.825 434.255 198.912C444.436 257.924 237.444 393.759 115.857 329.386C69.0559 304.585 45.8559 255.905 43.084 249.904Z" fill="#5970FF"/>
</svg>
