<svg width="141" height="69" viewBox="0 0 141 69" fill="none" xmlns="http://www.w3.org/2000/svg">
<path d="M3.84058 60.2403C2.66648 60.072 1.60724 59.4444 0.895574 58.4955C0.183909 57.5466 -0.121967 56.354 0.0451499 55.1798L5.57907 16.6747C5.75317 15.7067 6.30379 14.847 7.11032 14.2841C7.91685 13.7211 8.91357 13.5007 9.88227 13.6711L13.497 14.196C14.2035 14.3051 14.9264 14.2165 15.5856 13.9401C16.2449 13.6636 16.8148 13.2101 17.2322 12.6297L18.2391 11.158C18.6565 10.5776 19.2264 10.1241 19.8856 9.84761C20.5449 9.57115 21.2678 9.48253 21.9743 9.59161L39.1871 12.0617C39.8345 12.1478 40.4498 12.3956 40.9762 12.7822C41.5027 13.1687 41.9233 13.6816 42.1994 14.2735L42.8535 15.7366C43.1287 16.3274 43.548 16.8395 44.0729 17.226C44.5977 17.6125 45.2112 17.8609 45.8571 17.9485L67.7604 21.0984C68.7369 21.2066 69.6306 21.6978 70.2454 22.4642C70.8601 23.2307 71.1457 24.2097 71.0394 25.1864L65.3764 64.5608C65.2931 65.1418 65.0961 65.7008 64.7966 66.2057C64.4971 66.7105 64.101 67.1514 63.631 67.5031C63.1611 67.8548 62.6264 68.1104 62.0575 68.2553C61.4887 68.4002 60.8968 68.4316 60.3158 68.3476L3.84058 60.2403Z" fill="#455A64"/>
<g opacity="0.3">
<path d="M3.84009 60.2402C2.66599 60.0719 1.60675 59.4443 0.895086 58.4954C0.183421 57.5465 -0.122455 56.3539 0.0446616 55.1796L5.57858 16.6746C5.75268 15.7065 6.30331 14.8469 7.10983 14.284C7.91636 13.721 8.91308 13.5006 9.88178 13.6709L13.4965 14.1959C14.203 14.305 14.9259 14.2164 15.5852 13.9399C16.2444 13.6635 16.8143 13.2099 17.2317 12.6296L18.2386 11.1579C18.656 10.5775 19.2259 10.124 19.8851 9.84749C20.5444 9.57103 21.2673 9.48241 21.9738 9.59149L39.1866 12.0616C39.834 12.1477 40.4493 12.3955 40.9757 12.782C41.5022 13.1686 41.9228 13.6815 42.1989 14.2734L42.853 15.7365C43.1282 16.3273 43.5476 16.8394 44.0724 17.2259C44.5972 17.6124 45.2107 17.8608 45.8566 17.9483L67.7599 21.0983C68.7364 21.2065 69.6301 21.6977 70.2449 22.4641C70.8597 23.2305 71.1452 24.2096 71.039 25.1863L65.3759 64.5607C65.2926 65.1417 65.0956 65.7007 64.7961 66.2055C64.4966 66.7104 64.1006 67.1513 63.6306 67.503C63.1606 67.8547 62.6259 68.1103 62.057 68.2552C61.4882 68.4001 60.8963 68.4315 60.3154 68.3475L3.84009 60.2402Z" fill="black"/>
</g>
<path d="M43.6619 17.6472L29.7368 15.6075L28.8245 13.103C28.5111 12.2852 27.9826 11.5672 27.2948 11.0248C26.607 10.4825 25.7856 10.136 24.9172 10.0219L11.3018 8.06826C10.1852 7.86958 9.03526 8.11979 8.1021 8.76446C7.16895 9.40913 6.52803 10.3961 6.31873 11.5108L6.09496 13.103L0.0704819 54.9044C-0.0675314 56.1883 0.307217 57.4749 1.11315 58.4839C1.91908 59.4929 3.09094 60.1427 4.37367 60.2919L59.7215 68.3131C60.9948 68.5361 62.3046 68.2456 63.3642 67.5053C64.4239 66.765 65.1472 65.6351 65.3759 64.3628L71.0561 24.8766C71.1182 24.4576 71.0967 24.0306 70.993 23.6199C70.8892 23.2093 70.7052 22.8233 70.4516 22.4841C70.198 22.1449 69.8798 21.8593 69.5154 21.6436C69.1509 21.4279 68.7473 21.2865 68.3279 21.2275L43.6619 17.6472Z" fill="#455A64"/>
<path d="M54.8463 34.8255L21.921 30.0927L19.9298 43.9443L52.8552 48.6772L54.8463 34.8255Z" fill="white"/>
<path d="M48.8779 40.2132C48.8779 40.3337 43.7829 39.7054 37.5346 38.8104C31.2864 37.9153 26.2344 37.0891 26.2602 36.96C26.286 36.8309 31.3552 37.4678 37.6035 38.3628C43.8517 39.2579 48.8951 40.0927 48.8779 40.2132Z" fill="#263238"/>
<path d="M48.4567 43.1652C48.4567 43.2857 43.3617 42.6575 37.1134 41.7624C30.8652 40.8673 25.8132 40.0411 25.8305 39.912C25.8477 39.7829 30.9254 40.4198 37.1737 41.3149C43.422 42.2099 48.4739 43.0448 48.4567 43.1652Z" fill="#263238"/>
<path d="M103.753 43.1308C103.39 43.2675 103.005 43.3314 102.618 43.3188C102.231 43.3062 101.85 43.2175 101.498 43.0576C101.145 42.8977 100.828 42.6698 100.563 42.387C100.299 42.1042 100.093 41.7721 99.9571 41.4095L90.8344 17.5698C90.7299 17.2681 90.686 16.9487 90.7052 16.6299C90.7244 16.3112 90.8063 15.9994 90.9462 15.7124C91.0861 15.4254 91.2813 15.1688 91.5206 14.9573C91.7598 14.7458 92.0384 14.5837 92.3405 14.4801L94.5781 13.6195C95.0161 13.4529 95.4005 13.1702 95.6901 12.8018C95.9797 12.4333 96.1635 11.993 96.222 11.5281L96.3252 10.3662C96.3781 9.8994 96.5598 9.45647 96.8502 9.08709C97.1405 8.71772 97.5279 8.43648 97.9691 8.27486L108.607 4.19543C109.006 4.04084 109.438 3.98822 109.864 4.04231C110.289 4.0964 110.694 4.25549 111.042 4.50525L111.903 5.13353C112.25 5.38183 112.654 5.54011 113.077 5.59418C113.501 5.64825 113.931 5.59644 114.33 5.44337L127.894 0.279524C128.489 0.0302549 129.16 0.0270258 129.758 0.270541C130.356 0.514056 130.834 0.984495 131.087 1.57907L140.416 25.961C140.554 26.3231 140.619 26.7089 140.607 27.0962C140.594 27.4834 140.506 27.8645 140.346 28.2173C140.186 28.5702 139.958 28.8879 139.674 29.152C139.391 29.4162 139.058 29.6216 138.695 29.7565L103.753 43.1308Z" fill="#029491"/>
<g opacity="0.3">
<path d="M103.752 43.1308C103.39 43.2675 103.004 43.3314 102.618 43.3188C102.231 43.3062 101.85 43.2175 101.497 43.0576C101.145 42.8977 100.827 42.6698 100.563 42.387C100.299 42.1042 100.093 41.7721 99.9568 41.4095L90.834 17.5698C90.7296 17.2681 90.6857 16.9487 90.7049 16.6299C90.7241 16.3112 90.8059 15.9994 90.9459 15.7124C91.0858 15.4254 91.281 15.1688 91.5202 14.9573C91.7595 14.7458 92.0381 14.5837 92.3401 14.4801L94.5778 13.6195C95.0158 13.4529 95.4002 13.1702 95.6898 12.8018C95.9793 12.4333 96.1632 11.993 96.2216 11.5281L96.3249 10.3662C96.3777 9.8994 96.5595 9.45647 96.8498 9.08709C97.1402 8.71772 97.5276 8.43648 97.9687 8.27486L108.606 4.19543C109.006 4.04084 109.438 3.98822 109.863 4.04231C110.288 4.0964 110.694 4.25549 111.042 4.50525L111.903 5.13353C112.25 5.38183 112.653 5.54011 113.077 5.59418C113.501 5.64825 113.931 5.59644 114.33 5.44337L127.893 0.279524C128.489 0.0302549 129.16 0.0270258 129.758 0.270541C130.356 0.514056 130.834 0.984495 131.086 1.57907L140.416 25.961C140.553 26.3231 140.618 26.7089 140.606 27.0962C140.594 27.4834 140.506 27.8645 140.346 28.2173C140.186 28.5702 139.957 28.8879 139.674 29.152C139.39 29.4162 139.057 29.6216 138.694 29.7565L103.752 43.1308Z" fill="black"/>
</g>
<path d="M112.979 5.97684L104.372 9.2645L103.047 8.11983C102.608 7.74921 102.076 7.50527 101.509 7.41428C100.942 7.32329 100.361 7.38869 99.828 7.60344L91.3937 10.8308C90.6909 11.0804 90.1154 11.5979 89.7929 12.2703C89.4704 12.9427 89.4271 13.7155 89.6725 14.4197L90.0511 15.4008L99.9571 41.2889C100.29 42.071 100.917 42.6904 101.703 43.0126C102.49 43.3349 103.371 43.334 104.157 43.0102L138.419 29.894C139.224 29.6164 139.885 29.0308 140.258 28.2658C140.63 27.5009 140.684 26.6192 140.407 25.8146L131.043 1.35521C130.841 0.831398 130.44 0.409295 129.926 0.181726C129.413 -0.045842 128.83 -0.0602424 128.307 0.141699L112.979 5.97684Z" fill="#029491"/>
<path d="M124.879 12.2354L104.487 20.0424L107.771 28.6183L128.162 20.8114L124.879 12.2354Z" fill="white"/>
<path d="M123.177 17.2513C120.928 18.3554 118.615 19.3211 116.248 20.1431C113.94 21.1099 111.574 21.9347 109.165 22.6131C111.404 21.5192 113.702 20.5538 116.05 19.7214C118.375 18.7576 120.754 17.9328 123.177 17.2513V17.2513Z" fill="#263238"/>
<path d="M123.875 19.0844C121.637 20.1768 119.338 21.1394 116.99 21.9675C114.657 22.9274 112.269 23.7465 109.838 24.4203C112.086 23.3163 114.4 22.3506 116.766 21.5286C119.084 20.5711 121.458 19.7548 123.875 19.0844V19.0844Z" fill="#263238"/>
</svg>
