<svg width="443" height="471" viewBox="0 0 443 471" fill="none" xmlns="http://www.w3.org/2000/svg">
<path d="M391.555 118.723H91.8236V343.945H391.555V118.723Z" fill="white"/>
<path d="M391.556 343.945C391.556 343.945 391.556 343.584 391.556 342.891C391.556 342.199 391.556 341.165 391.556 339.811C391.556 337.101 391.556 333.087 391.505 327.839C391.505 317.363 391.445 301.969 391.395 282.321C391.345 243.085 391.265 186.829 391.174 118.753L391.606 119.184L91.9044 119.274L92.4262 118.753C92.4262 199.734 92.4262 276.41 92.4262 343.975L91.9546 343.504L308.286 343.734L369.73 343.865L386.036 343.925H390.241H391.315H390.261H386.117L369.9 343.985L308.567 344.116L91.9245 344.347H91.3525V343.875C91.3525 276.31 91.3525 199.634 91.3023 118.652V118.13H91.8542L391.556 118.231H391.997V118.652C391.907 186.889 391.837 243.225 391.776 282.522C391.726 302.13 391.696 317.483 391.666 327.94C391.666 333.148 391.666 337.141 391.666 339.831C391.666 341.165 391.666 342.179 391.666 342.841C391.666 343.504 391.556 343.945 391.556 343.945Z" fill="#263238"/>
<path d="M390.051 146.309C389.801 146.341 389.55 146.358 389.298 146.359H387.07L378.521 146.449C371.105 146.509 360.357 146.539 347.091 146.529C320.539 146.529 283.872 146.339 243.371 146.008L139.651 145.175L108.211 144.924L99.6717 144.823L97.4439 144.763C97.1939 144.792 96.9414 144.792 96.6913 144.763C96.9394 144.718 97.192 144.701 97.4439 144.713H99.6717L108.211 144.623C115.637 144.563 126.374 144.532 139.651 144.532C166.193 144.532 202.87 144.733 243.381 145.064L347.091 145.897L378.531 146.138L387.07 146.248H389.298C389.55 146.242 389.803 146.262 390.051 146.309Z" fill="#263238"/>
<path d="M111.402 130.122C111.404 130.822 111.198 131.506 110.811 132.088C110.423 132.671 109.872 133.125 109.226 133.394C108.58 133.662 107.869 133.733 107.183 133.597C106.497 133.461 105.867 133.124 105.372 132.63C104.877 132.135 104.541 131.505 104.405 130.819C104.269 130.133 104.34 129.422 104.608 128.776C104.877 128.13 105.331 127.578 105.913 127.191C106.496 126.804 107.18 126.598 107.88 126.6C108.813 126.603 109.707 126.974 110.367 127.634C111.027 128.294 111.399 129.189 111.402 130.122Z" fill="#263238"/>
<path d="M125.521 130.122C125.523 130.821 125.318 131.505 124.931 132.087C124.544 132.669 123.993 133.124 123.348 133.393C122.702 133.662 121.992 133.733 121.306 133.598C120.62 133.463 119.99 133.127 119.495 132.633C119 132.14 118.662 131.51 118.525 130.825C118.388 130.139 118.457 129.429 118.724 128.783C118.992 128.137 119.444 127.584 120.025 127.196C120.606 126.807 121.29 126.6 121.989 126.6C122.924 126.6 123.821 126.971 124.483 127.631C125.145 128.291 125.518 129.187 125.521 130.122V130.122Z" fill="#263238"/>
<path d="M136.108 133.695C138.059 133.695 139.64 132.113 139.64 130.162C139.64 128.211 138.059 126.63 136.108 126.63C134.157 126.63 132.576 128.211 132.576 130.162C132.576 132.113 134.157 133.695 136.108 133.695Z" fill="#263238"/>
<path d="M205.659 277.043H144.065V323.153H205.659V277.043Z" fill="#EBEBEB"/>
<path d="M273.306 277.043H211.712V323.153H273.306V277.043Z" fill="#EBEBEB"/>
<path d="M352.138 277.043H290.544V323.153H352.138V277.043Z" fill="#EBEBEB"/>
<path d="M252.115 256.167C223.123 236.899 226.502 196.723 233.994 179.566L256.597 175.627C248.97 185.028 248.166 219.115 257.784 226.473C267.401 233.832 285.289 233.741 292.365 223.91C297.928 216.193 298.704 198.316 308.102 196.878C304.164 176.921 318.301 155.131 338.128 150.604C339.204 144.974 341.541 139.661 344.963 135.063C348.385 130.465 352.804 126.701 357.888 124.054C362.972 121.407 368.589 119.945 374.318 119.778C380.047 119.611 385.74 120.744 390.969 123.09L390.535 187.774C390.535 187.774 396.695 218.466 377.541 225.626C370.998 228.071 364.511 226.646 358.993 224.012C358.571 224.993 357.966 225.886 357.21 226.641C354.238 229.549 349.597 230.308 345.51 229.436C344.982 229.323 344.493 229.186 343.956 229.009C339.65 242.243 327.304 256.469 315.876 262.418C299.344 271.077 267.711 266.525 252.115 256.167Z" fill="#F5F5F5"/>
<path d="M311.92 203.719C311.92 203.719 311.892 203.609 311.794 203.4L311.365 202.507C311.168 202.111 310.932 201.622 310.698 201.03C310.465 200.438 310.151 199.764 309.904 198.978C308.338 194.552 307.652 189.862 307.885 185.172C308.03 181.957 308.622 178.777 309.644 175.726C310.801 172.201 312.551 168.899 314.817 165.962C320.044 159.183 327.527 154.502 335.909 152.768C337.11 152.509 338.329 152.377 339.459 152.239L339.681 152.219L339.691 152.003C340.076 147.071 341.496 142.274 343.858 137.926C346.22 133.579 349.472 129.777 353.401 126.77C354.769 125.768 356.195 124.847 357.671 124.011C360.312 122.487 363.13 121.297 366.063 120.465C370.295 119.232 374.75 118.96 379.1 119.67C379.876 119.778 380.54 119.936 381.124 120.071C381.618 120.175 382.106 120.303 382.586 120.456L383.487 120.707C383.586 120.745 383.691 120.768 383.797 120.773C383.797 120.773 383.702 120.717 383.504 120.658L382.62 120.359C382.143 120.184 381.656 120.041 381.161 119.93C380.578 119.773 379.91 119.6 379.111 119.455C374.723 118.664 370.213 118.881 365.922 120.091C362.952 120.905 360.097 122.091 357.424 123.62C355.924 124.453 354.476 125.377 353.09 126.389C351.628 127.487 350.255 128.699 348.984 130.014C343.243 135.946 339.747 143.692 339.098 151.922L339.336 151.677C334.437 152.162 329.69 153.651 325.393 156.052C321.095 158.453 317.339 161.715 314.359 165.633C312.069 168.613 310.307 171.963 309.149 175.538C308.127 178.644 307.546 181.878 307.423 185.145C307.216 189.874 307.962 194.596 309.617 199.03C309.862 199.727 310.144 200.41 310.461 201.077C310.669 201.578 310.906 202.068 311.169 202.543C311.374 202.908 311.529 203.197 311.644 203.417C311.728 203.525 311.82 203.626 311.92 203.719V203.719Z" fill="#263238"/>
<path d="M300.174 209.34C300.273 209.328 300.182 208.436 300.431 207.045C300.582 206.237 300.82 205.448 301.143 204.692C301.547 203.77 302.061 202.899 302.671 202.099C303.309 201.316 304.037 200.611 304.841 199.999C305.502 199.509 306.216 199.094 306.968 198.761C308.267 198.198 309.152 198.08 309.136 197.989C309.12 197.897 308.909 197.959 308.501 197.999C307.929 198.072 307.368 198.215 306.83 198.423C306.022 198.715 305.258 199.115 304.557 199.611C302.822 200.835 301.477 202.534 300.683 204.503C300.362 205.302 300.15 206.141 300.052 206.996C299.972 207.569 299.967 208.149 300.036 208.723C300.098 209.132 300.146 209.347 300.174 209.34Z" fill="#263238"/>
<path d="M310.382 233.657C310.382 233.657 310.431 233.022 310.647 231.903C310.956 230.312 311.579 228.798 312.48 227.45C313.82 225.416 315.779 223.867 318.067 223.032C320.919 221.999 324.059 222.095 326.842 223.301L327.231 223.472L327.205 223.061C327.156 221.69 327.261 220.318 327.519 218.971C328.185 215.503 329.815 212.294 332.221 209.71C334.22 207.628 336.675 206.041 339.393 205.073C341.227 204.419 343.148 204.044 345.093 203.96C346.473 203.911 347.241 203.991 347.236 203.941C347.057 203.886 346.871 203.855 346.684 203.849C346.153 203.783 345.619 203.752 345.085 203.757C342.62 203.769 340.183 204.273 337.916 205.238C335.648 206.204 333.597 207.612 331.88 209.38C330.142 211.201 328.788 213.352 327.897 215.706C327.005 218.06 326.595 220.569 326.691 223.084L327.059 222.835C324.149 221.567 320.86 221.479 317.886 222.588C315.522 223.479 313.513 225.117 312.165 227.253C311.271 228.649 310.68 230.218 310.43 231.857C310.364 232.297 310.332 232.741 310.334 233.186C310.327 233.345 310.344 233.503 310.382 233.657V233.657Z" fill="#263238"/>
<path d="M237.466 241.022C237.578 241.269 237.711 241.507 237.862 241.733C238.146 242.18 238.549 242.86 239.116 243.695C240.756 246.035 242.608 248.218 244.649 250.218C247.686 253.161 251.055 255.742 254.689 257.907C256.834 259.192 259.051 260.352 261.331 261.38C263.774 262.496 266.278 263.474 268.83 264.309C277.791 267.287 287.196 268.71 296.637 268.516C299.493 268.46 302.339 268.15 305.14 267.587C306.123 267.363 306.887 267.173 307.393 267.005C307.656 266.938 307.912 266.848 308.159 266.734C307.889 266.771 307.622 266.828 307.36 266.904C306.846 267.044 306.085 267.189 305.095 267.386C302.299 267.87 299.468 268.125 296.63 268.151C287.249 268.236 277.918 266.773 269.012 263.822C266.478 262.996 263.991 262.028 261.565 260.923C259.296 259.913 257.087 258.77 254.951 257.502C251.324 255.37 247.949 252.837 244.887 249.951C242.857 247.992 240.992 245.868 239.312 243.601C238.715 242.795 238.302 242.132 238.006 241.666C237.844 241.437 237.663 241.221 237.466 241.022V241.022Z" fill="#263238"/>
<path d="M252.711 217.787C252.781 218.241 252.912 218.683 253.102 219.101C253.511 220.252 254.026 221.363 254.64 222.419C256.655 225.952 259.611 228.855 263.179 230.807C266.747 232.758 270.787 233.679 274.849 233.469C276.065 233.416 277.273 233.251 278.459 232.976C278.903 232.894 279.335 232.758 279.747 232.571C278.122 232.836 276.483 233.01 274.839 233.091C270.861 233.198 266.926 232.249 263.435 230.34C259.944 228.432 257.021 225.632 254.964 222.226C254.119 220.796 253.366 219.313 252.711 217.787V217.787Z" fill="#263238"/>
<path d="M248.198 172.424C250.277 176.635 251.5 181.216 251.797 185.903C251.834 186.569 251.661 187.231 251.301 187.794C250.942 188.356 250.414 188.792 249.794 189.038C249.173 189.284 248.491 189.329 247.843 189.166C247.196 189.002 246.616 188.64 246.186 188.129L246.117 188.088C246.812 193.788 247.13 199.528 247.066 205.27C247.065 206.078 246.813 206.865 246.347 207.524C245.88 208.183 245.221 208.681 244.46 208.951C243.699 209.22 242.873 209.248 242.095 209.03C241.318 208.812 240.627 208.358 240.117 207.732C230.89 196.504 226.05 182.31 226.494 167.785L248.198 172.424Z" fill="#029491"/>
<g opacity="0.3">
<path d="M245.678 177.648C246.073 178.346 246.324 179.116 246.417 179.912C246.459 180.31 246.385 180.711 246.204 181.067C246.023 181.424 245.742 181.72 245.396 181.92C244.308 182.443 242.924 181.569 241.853 182.161C240.782 182.753 240.858 184.382 241.142 185.621L242.058 189.539C242.285 190.5 242.426 191.701 241.608 192.279C240.79 192.857 239.49 192.277 238.685 191.546C236.82 189.824 235.4 187.676 234.547 185.284C233.695 182.893 233.435 180.33 233.791 177.816L245.678 177.648Z" fill="black"/>
</g>
<path d="M246.651 223.068C247.425 223.563 247.973 224.341 248.179 225.235C248.384 226.13 248.231 227.07 247.75 227.852C247.27 228.634 246.502 229.197 245.611 229.418C244.72 229.64 243.778 229.503 242.987 229.037C242.196 228.571 241.62 227.813 241.383 226.926C241.145 226.039 241.265 225.095 241.717 224.296C242.169 223.497 242.917 222.907 243.799 222.654C244.681 222.4 245.628 222.503 246.435 222.941" fill="#029491"/>
<path d="M236.036 2.64008C241.268 2.43932 251.385 15.5901 261.157 37.8219C266.937 50.9292 270.584 64.8764 271.96 79.1352L275.629 176.28L250.038 177.247L235.19 177.814L209.6 178.78L206.272 90.6195C205.94 81.995 206.436 73.3586 207.753 64.8288C209.033 56.2805 210.999 47.8491 213.634 39.6166C221.165 16.6237 230.809 2.83219 236.036 2.64008Z" fill="#F5F5F5"/>
<path d="M207.321 117.868L207.082 118.076C200.153 124.084 194.662 131.573 191.016 139.989C187.37 148.405 185.661 157.532 186.017 166.697L186.458 178.338L208.965 161.4L207.321 117.868Z" fill="#029491"/>
<path d="M207.321 117.867L207.328 118.093L207.343 118.719L207.439 121.106L207.702 130.125L208.794 161.393L208.865 161.272L188.387 176.726L186.355 178.196L186.615 178.348L186.346 171.492C186.277 169.238 186.143 167.016 186.153 164.844C186.121 160.664 186.511 156.492 187.32 152.392C188.043 148.685 189.121 145.057 190.538 141.557C191.157 139.895 191.937 138.374 192.62 136.879C193.304 135.383 194.095 134.021 194.911 132.754C197.343 128.691 200.243 124.927 203.55 121.538C204.688 120.299 205.69 119.469 206.305 118.841L207.282 117.914L207.015 118.13L206.278 118.709C205.634 119.307 204.614 120.128 203.459 121.357C200.097 124.728 197.155 128.493 194.695 132.569C193.87 133.83 193.125 135.231 192.376 136.7C191.627 138.169 190.899 139.72 190.266 141.385C188.831 144.901 187.735 148.546 186.995 152.27C186.176 156.392 185.776 160.586 185.802 164.788C185.79 166.982 185.92 169.191 185.998 171.45L186.274 178.334L186.287 178.668L186.557 178.466L188.588 176.996L209.098 161.549L209.139 161.479L209.175 161.419L207.886 130.012L207.506 121.052L207.41 118.665C207.396 118.412 207.396 118.215 207.38 118.065L207.321 117.867Z" fill="#263238"/>
<path d="M273.355 115.381C273.355 115.381 273.485 115.458 273.623 115.539C280.882 120.935 286.837 127.891 291.048 135.896C295.26 143.9 297.619 152.748 297.953 161.787L298.392 173.274L274.982 158.31L273.355 115.381Z" fill="#029491"/>
<path d="M273.355 115.381L273.351 115.565L273.373 116.161L273.425 118.521L273.723 127.363L274.799 158.342L274.806 158.428L274.867 158.464C281.436 162.674 288.638 167.292 296.19 172.128C296.916 172.556 297.612 173.036 298.262 173.454L298.547 173.622L298.534 173.289L298.282 166.523C298.184 164.299 298.146 162.11 297.971 159.957C297.687 155.819 296.98 151.722 295.861 147.728C294.861 144.124 293.513 140.627 291.837 137.284C291.101 135.685 290.207 134.238 289.415 132.816C288.622 131.394 287.735 130.113 286.812 128.952C284.106 125.128 280.952 121.642 277.417 118.568C276.185 117.457 275.129 116.718 274.447 116.176C274.109 115.919 273.853 115.722 273.643 115.563C273.434 115.405 273.358 115.395 273.358 115.395C273.522 115.492 273.793 115.744 274.38 116.23C274.967 116.716 276.097 117.546 277.311 118.669C280.82 121.764 283.956 125.258 286.654 129.08C287.548 130.271 288.333 131.607 289.24 132.934C290.147 134.261 290.896 135.797 291.627 137.382C293.282 140.718 294.612 144.205 295.6 147.796C296.701 151.77 297.397 155.845 297.679 159.959C297.841 162.094 297.874 164.291 297.972 166.516L298.224 173.281L298.492 173.124C297.826 172.731 297.125 172.26 296.428 171.802C288.872 166.975 281.656 162.361 275.081 158.159L275.158 158.286L273.906 127.448L273.526 118.569L273.43 116.183L273.396 115.568L273.355 115.381Z" fill="#263238"/>
<path d="M236.035 2.64123C240.074 2.33101 247.057 10.3035 254.521 24.1616L217.783 28.0512C224.151 13.435 230.858 3.02571 236.035 2.64123Z" fill="#029491"/>
<path d="M209.692 162.934C209.703 163.034 224.34 162.646 242.388 162.067C260.435 161.488 275.078 160.952 275.067 160.852C275.056 160.753 260.477 161.14 242.38 161.725C224.283 162.309 209.689 162.839 209.692 162.934Z" fill="#263238"/>
<path d="M210.105 165.869C210.064 165.938 224.745 165.576 242.792 164.997C260.84 164.418 275.483 163.882 275.472 163.782C275.461 163.683 260.84 164.08 242.784 164.655C224.729 165.229 210.094 165.769 210.105 165.869Z" fill="#263238"/>
<path d="M210.159 168.976C210.171 169.076 224.808 168.688 242.856 168.109C260.903 167.53 275.546 166.994 275.535 166.894C275.524 166.795 260.904 167.192 242.848 167.767C224.792 168.341 210.157 168.881 210.159 168.976Z" fill="#263238"/>
<path d="M210.223 172.09C210.235 172.189 224.877 171.793 242.919 171.223C260.962 170.652 275.622 170.068 275.579 170.043C275.535 170.017 260.947 170.341 242.891 170.915C224.835 171.489 210.226 171.986 210.223 172.09Z" fill="#263238"/>
<path d="M210.266 175.179C210.226 175.249 224.907 174.887 242.962 174.312C261.018 173.738 275.644 173.192 275.642 173.098C275.64 173.003 261.01 173.396 242.955 173.97C224.899 174.544 210.307 175.11 210.266 175.179Z" fill="#263238"/>
<path d="M240.218 116.7C240.218 116.7 240.142 116.83 240.16 117.155C240.178 117.48 240.14 117.9 240.127 118.475C240.119 119.635 240.163 121.28 240.228 123.322C240.346 127.411 240.581 133.059 240.879 139.292C241.177 145.525 241.476 151.164 241.711 155.251L242.015 160.09L242.118 161.397C242.116 161.551 242.135 161.704 242.177 161.851C242.19 161.697 242.192 161.542 242.182 161.388L242.151 160.077L241.955 155.232L241.203 139.296L240.452 123.338L240.226 118.545C240.211 117.977 240.175 117.525 240.186 117.229L240.218 116.7Z" fill="#263238"/>
<path d="M207.322 117.868C207.333 117.967 221.994 117.5 240.061 116.828C258.128 116.156 272.795 115.541 272.793 115.446C272.79 115.351 258.129 115.818 240.053 116.486C221.978 117.153 207.319 117.773 207.322 117.868Z" fill="#263238"/>
<path d="M236.129 148.931C236.016 148.808 235.868 148.721 235.705 148.682C235.274 148.507 234.795 148.488 234.351 148.628C234.011 148.721 233.701 148.902 233.453 149.153C233.205 149.403 233.028 149.715 232.938 150.056C232.807 150.481 232.813 150.937 232.954 151.359C233.096 151.781 233.366 152.148 233.727 152.408C234.088 152.669 234.521 152.809 234.966 152.81C235.411 152.811 235.846 152.673 236.208 152.414C236.504 152.223 236.745 151.956 236.906 151.642C237.067 151.328 237.141 150.976 237.123 150.624C237.121 150.171 236.971 149.731 236.697 149.371C236.489 149.132 236.314 149.052 236.304 149.069C236.294 149.087 236.425 149.199 236.587 149.458C236.817 149.811 236.935 150.225 236.924 150.646C236.92 150.951 236.837 151.249 236.682 151.511C236.527 151.774 236.307 151.991 236.042 152.142C235.732 152.346 235.368 152.451 234.997 152.443C234.626 152.435 234.266 152.314 233.966 152.096C233.665 151.878 233.438 151.574 233.315 151.225C233.191 150.875 233.177 150.496 233.275 150.138C233.343 149.843 233.486 149.571 233.691 149.349C233.895 149.127 234.154 148.961 234.442 148.869C234.829 148.723 235.25 148.696 235.653 148.79C235.967 148.871 236.114 148.957 236.129 148.931Z" fill="#263238"/>
<path d="M235.072 130.172C235.072 130.172 234.96 130.025 234.648 129.923C234.216 129.748 233.737 129.729 233.293 129.869C232.953 129.962 232.644 130.143 232.396 130.394C232.148 130.644 231.97 130.956 231.881 131.297C231.75 131.722 231.755 132.178 231.897 132.6C232.038 133.022 232.309 133.389 232.669 133.649C233.03 133.91 233.464 134.05 233.909 134.051C234.354 134.052 234.788 133.914 235.15 133.655C235.447 133.463 235.688 133.197 235.848 132.883C236.009 132.569 236.084 132.217 236.066 131.865C236.058 131.415 235.907 130.979 235.635 130.62C235.533 130.486 235.4 130.38 235.247 130.31C235.247 130.31 235.363 130.449 235.525 130.707C235.755 131.06 235.872 131.475 235.861 131.896C235.859 132.199 235.776 132.496 235.622 132.757C235.468 133.018 235.249 133.234 234.985 133.383C234.676 133.587 234.312 133.693 233.941 133.686C233.57 133.679 233.21 133.559 232.909 133.342C232.609 133.126 232.381 132.823 232.256 132.473C232.132 132.124 232.116 131.745 232.212 131.387C232.281 131.091 232.425 130.818 232.631 130.595C232.836 130.371 233.096 130.204 233.385 130.11C233.771 129.97 234.19 129.946 234.591 130.04C234.909 130.112 235.056 130.198 235.072 130.172Z" fill="#263238"/>
<path d="M244.096 100.557C243.978 100.44 243.832 100.354 243.673 100.308C243.239 100.141 242.763 100.122 242.318 100.254C241.966 100.347 241.646 100.534 241.391 100.794C241.137 101.055 240.959 101.38 240.875 101.734C240.745 102.159 240.752 102.615 240.895 103.036C241.037 103.457 241.308 103.823 241.67 104.083C242.031 104.342 242.465 104.482 242.91 104.482C243.354 104.482 243.788 104.342 244.149 104.083C244.446 103.892 244.687 103.625 244.848 103.311C245.008 102.997 245.083 102.646 245.065 102.293C245.061 101.842 244.91 101.405 244.634 101.049C244.422 100.796 244.256 100.721 244.246 100.739C244.332 100.874 244.427 101.003 244.529 101.127C244.753 101.483 244.869 101.895 244.865 102.315C244.86 102.619 244.776 102.917 244.621 103.179C244.467 103.441 244.247 103.659 243.984 103.811C243.666 103.991 243.304 104.081 242.939 104.071C242.573 104.061 242.217 103.951 241.91 103.753C241.621 103.525 241.403 103.218 241.282 102.871C241.161 102.523 241.142 102.148 241.227 101.79C241.295 101.495 241.438 101.223 241.643 101.001C241.847 100.779 242.106 100.613 242.394 100.521C242.781 100.375 243.202 100.348 243.605 100.442C243.934 100.497 244.081 100.583 244.096 100.557Z" fill="#263238"/>
<path d="M248.063 87.3449C247.972 87.3611 247.78 93.911 247.602 101.96C247.424 110.009 247.439 116.564 247.538 116.553C247.638 116.542 247.821 109.987 247.999 101.938C248.178 93.889 248.184 87.3577 248.063 87.3449Z" fill="#263238"/>
<g opacity="0.3">
<path d="M274.928 157.195C274.928 157.195 273.212 129.042 273.355 115.381C276.321 121.87 279.654 129.298 280.509 136.384C281.31 143.774 279.32 151.197 274.928 157.195V157.195Z" fill="black"/>
</g>
<path d="M234.223 89.0671C223.626 86.3957 217.2 75.6392 219.872 65.0417C222.543 54.4441 233.3 48.0187 243.897 50.6901C254.495 53.3614 260.92 64.118 258.249 74.7155C255.577 85.313 244.821 91.7384 234.223 89.0671Z" fill="white"/>
<path d="M230 87.4958C229.915 87.4306 229.822 87.3759 229.724 87.3328C229.516 87.2105 229.248 87.0525 228.911 86.8537C228.467 86.6031 228.043 86.3181 227.643 86.0014C227.074 85.6047 226.533 85.169 226.024 84.6974C224.606 83.433 223.382 81.966 222.393 80.3439C221.076 78.2004 220.179 75.8254 219.75 73.3462C219.188 70.1226 219.444 66.8094 220.495 63.7106C221.546 60.6118 223.359 57.8267 225.766 55.6108C227.138 54.3206 228.701 53.2496 230.399 52.4356C231.271 52.0101 232.169 51.6409 233.089 51.3304C234.031 51.0598 234.99 50.8466 235.958 50.692C240.065 50.0293 244.277 50.6999 247.975 52.6053C251.673 54.5107 254.664 57.5508 256.508 61.2798C256.947 62.1479 257.329 63.0428 257.655 63.9592C257.94 64.8875 258.16 65.8347 258.314 66.7937C258.639 68.6508 258.676 70.5469 258.424 72.4154C257.982 75.8699 256.63 79.1451 254.507 81.9063C252.801 84.1021 250.649 85.912 248.194 87.2169C245.738 88.5218 243.034 89.2923 240.259 89.4778C238.364 89.6165 236.459 89.4712 234.608 89.0468C233.929 88.9048 233.259 88.7203 232.603 88.4944C232.114 88.3524 231.636 88.1719 231.174 87.9548C230.82 87.8044 230.532 87.681 230.304 87.5933C230.209 87.5453 230.109 87.5097 230.006 87.4872C230.093 87.5491 230.186 87.6036 230.282 87.6502C230.49 87.7725 230.783 87.8873 231.127 88.055C231.583 88.2923 232.058 88.4907 232.548 88.648C233.195 88.8893 233.858 89.0854 234.532 89.2349C236.396 89.7244 238.325 89.9184 240.25 89.81C243.079 89.6542 245.842 88.8966 248.355 87.5879C250.868 86.2791 253.073 84.4493 254.823 82.2205C257.025 79.3966 258.432 76.0348 258.897 72.484C259.161 70.5689 259.128 68.6246 258.8 66.7194C258.506 64.7212 257.889 62.784 256.974 60.9837C256.054 59.1086 254.839 57.3934 253.376 55.9037C251.861 54.3756 250.122 53.0874 248.219 52.0835C244.424 50.1426 240.11 49.46 235.902 50.1348C234.898 50.2906 233.906 50.5197 232.935 50.8205C231.994 51.1415 231.074 51.5211 230.18 51.9571C228.445 52.7984 226.849 53.9002 225.447 55.2243C222.826 57.6625 220.906 60.7572 219.884 64.1876C219.083 66.9074 218.872 69.7665 219.264 72.5744C219.655 75.3822 220.641 78.0744 222.155 80.4714C223.171 82.11 224.431 83.5836 225.892 84.8413C226.411 85.3153 226.968 85.745 227.558 86.126C227.967 86.4357 228.401 86.7109 228.855 86.9488C229.192 87.1476 229.46 87.3055 229.668 87.4278C229.775 87.4645 229.887 87.4873 230 87.4958V87.4958Z" fill="#263238"/>
<path d="M236.035 2.64029C235.958 2.6412 235.881 2.64638 235.805 2.65584C235.574 2.66659 235.346 2.70832 235.126 2.77988C234.259 3.05432 233.448 3.48461 232.735 4.04965C230.05 6.30723 227.76 8.99653 225.96 12.007C222.987 16.714 220.416 21.6632 218.275 26.8021C215.372 33.6253 212.961 40.6476 211.06 47.8151C210.022 51.8159 209.084 56.0426 208.245 60.4951C207.382 65.1388 206.755 69.8235 206.367 74.5308C205.965 79.589 205.842 84.6655 206 89.7371L206.592 105.905L209.327 178.748L209.336 179.01L209.598 179.001C220.192 178.595 231.297 178.174 242.607 177.759C253.918 177.345 265.024 176.902 275.627 176.501L275.884 176.501L275.875 176.239L273.133 103.369L272.504 87.2027L272.19 79.5157C272.037 76.968 271.665 74.4772 271.348 72.0306C269.916 63.0893 267.641 54.3034 264.556 45.7898C261.935 38.8467 258.87 32.0791 255.381 25.5291C252.825 20.587 249.9 15.8451 246.631 11.3437C244.65 8.4614 242.214 5.92 239.418 3.81869C238.673 3.29746 237.837 2.91937 236.953 2.70371C236.726 2.65071 236.494 2.62706 236.261 2.63336C236.183 2.6259 236.105 2.62652 236.027 2.63519C236.333 2.64133 236.638 2.6805 236.936 2.75203C237.806 2.9859 238.627 3.3748 239.358 3.90003C242.141 6.02881 244.564 8.58979 246.535 11.4855C249.77 15.9982 252.664 20.7452 255.194 25.6871C258.631 32.2353 261.65 38.9948 264.232 45.9248C267.284 54.4228 269.526 63.19 270.929 72.1096C271.294 74.5145 271.635 76.9987 271.777 79.5051L272.062 87.2217L272.668 103.386L275.379 176.25L275.632 175.979L242.617 177.229L209.607 178.471L209.878 178.723L207.098 105.877L206.492 89.7127C206.324 84.6573 206.433 79.5965 206.82 74.5531C207.197 69.6849 207.861 65.0209 208.654 60.5728C209.447 56.1247 210.361 51.8873 211.397 47.8968C213.27 40.7417 215.651 33.7295 218.524 26.9138C220.628 21.7757 223.158 16.8225 226.088 12.1058C227.866 9.10045 230.123 6.40585 232.77 4.12855C233.47 3.55962 234.263 3.11669 235.114 2.81955C235.417 2.73724 235.724 2.67733 236.035 2.64029V2.64029Z" fill="#263238"/>
<path d="M328.829 261.981H154.553C149.089 261.981 143.849 259.81 139.986 255.947C136.122 252.083 133.952 246.843 133.952 241.379C133.952 235.915 136.122 230.675 139.986 226.812C143.849 222.948 149.089 220.777 154.553 220.777H328.829C334.293 220.777 339.533 222.948 343.396 226.812C347.26 230.675 349.43 235.915 349.43 241.379V241.379C349.43 246.843 347.26 252.083 343.396 255.947C339.533 259.81 334.293 261.981 328.829 261.981Z" fill="white"/>
<path d="M328.828 261.98L330.052 261.89C330.557 261.881 331.061 261.831 331.558 261.74C332.251 261.653 332.938 261.522 333.615 261.348L334.839 261.027C335.261 260.887 335.692 260.716 336.154 260.545L336.856 260.285L337.569 259.933C338.077 259.709 338.57 259.451 339.044 259.161C341.361 257.827 343.39 256.046 345.014 253.922C345.499 253.317 345.939 252.676 346.329 252.006C346.759 251.315 347.138 250.594 347.463 249.848C347.815 249.07 348.123 248.272 348.386 247.46C348.497 247.038 348.607 246.617 348.717 246.176L348.888 245.523L348.988 244.851L349.199 243.476L349.259 242.071V241.349V240.626C349.259 240.135 349.259 239.623 349.169 239.151C348.921 237.105 348.383 235.105 347.573 233.21C345.713 229.015 342.516 225.554 338.482 223.366C336.296 222.198 333.916 221.44 331.457 221.128C328.929 220.848 326.269 220.988 323.57 220.958L154.593 221.038C152.555 221.066 150.53 221.366 148.572 221.931C146.649 222.554 144.819 223.435 143.133 224.55C141.493 225.683 140.014 227.033 138.738 228.564C137.498 230.123 136.484 231.85 135.727 233.692C134.996 235.531 134.524 237.463 134.322 239.432C134.161 241.387 134.262 243.354 134.623 245.282C135.379 249.108 137.223 252.634 139.932 255.438C142.588 258.201 145.974 260.154 149.696 261.067C150.607 261.294 151.532 261.462 152.465 261.569C153.409 261.569 154.332 261.699 155.285 261.679H182.881L258.855 261.74L310.033 261.82L323.961 261.87H327.584H328.818H327.584H323.961H310.033L258.855 261.96L182.881 262.011H155.285C154.342 262.011 153.369 261.94 152.415 261.9C151.459 261.79 150.51 261.619 149.575 261.388C145.752 260.46 142.271 258.462 139.541 255.628C138.168 254.196 137 252.582 136.068 250.832C135.148 249.058 134.473 247.168 134.062 245.212C133.694 243.228 133.592 241.203 133.76 239.191C134.142 235.111 135.716 231.234 138.286 228.043C140.893 224.805 144.409 222.421 148.381 221.199C150.381 220.615 152.45 220.304 154.533 220.276L323.51 220.346C326.209 220.346 328.848 220.245 331.437 220.546C333.951 220.856 336.384 221.632 338.612 222.834C342.705 225.069 345.942 228.598 347.814 232.869C348.631 234.79 349.168 236.817 349.41 238.89C349.46 239.392 349.46 239.894 349.49 240.385V241.118V241.84C349.49 242.322 349.44 242.844 349.42 243.275C349.4 243.707 349.269 244.209 349.199 244.66L349.099 245.343L348.928 246.005C348.808 246.446 348.697 246.878 348.587 247.299C348.256 248.122 348.035 248.965 347.644 249.718C347.306 250.47 346.917 251.197 346.48 251.895C346.08 252.565 345.634 253.205 345.145 253.812C343.505 255.946 341.459 257.733 339.124 259.07C338.64 259.352 338.141 259.607 337.629 259.833L336.906 260.174L336.204 260.435C335.732 260.606 335.301 260.776 334.869 260.907L333.645 261.218C332.962 261.39 332.268 261.514 331.568 261.589C331.07 261.669 330.567 261.713 330.063 261.72L328.828 261.98Z" fill="#263238"/>
<path d="M327.413 245.562C330.995 241.98 330.995 236.173 327.413 232.591C323.831 229.009 318.024 229.009 314.442 232.591C310.86 236.173 310.86 241.98 314.442 245.562C318.024 249.144 323.831 249.144 327.413 245.562Z" fill="white"/>
<path d="M320.921 249.919C319.007 249.92 317.135 249.355 315.543 248.292C313.95 247.23 312.709 245.72 311.975 243.951C311.242 242.183 311.049 240.238 311.422 238.36C311.795 236.483 312.717 234.758 314.07 233.405C315.424 232.051 317.148 231.13 319.026 230.757C320.903 230.384 322.849 230.576 324.617 231.31C326.385 232.043 327.896 233.284 328.958 234.877C330.02 236.469 330.586 238.341 330.584 240.255C330.582 242.817 329.563 245.273 327.751 247.085C325.939 248.897 323.483 249.916 320.921 249.919V249.919ZM320.921 231.585C319.205 231.583 317.528 232.09 316.101 233.041C314.674 233.993 313.561 235.346 312.903 236.93C312.246 238.514 312.072 240.258 312.406 241.94C312.739 243.623 313.564 245.169 314.776 246.382C315.989 247.596 317.533 248.422 319.215 248.758C320.898 249.093 322.641 248.922 324.226 248.266C325.811 247.61 327.166 246.499 328.119 245.073C329.072 243.647 329.581 241.97 329.581 240.255C329.581 237.957 328.669 235.753 327.045 234.128C325.421 232.502 323.218 231.587 320.921 231.585Z" fill="#263238"/>
<path d="M328.585 245.251L328.049 246.1L335.813 251.002L336.349 250.154L328.585 245.251Z" fill="#263238"/>
<path d="M65.7059 438.834L66.3181 468.016L27.9046 468.919C28.0351 465.447 47.7235 458.011 47.7235 458.011L46.5193 439.336L65.7059 438.834Z" fill="#455A64"/>
<g opacity="0.6">
<path d="M59.5637 456.165C59.9257 456.251 60.2421 456.47 60.4502 456.779C60.6583 457.087 60.7431 457.462 60.6876 457.83C60.5861 458.195 60.3511 458.508 60.0294 458.706C59.7078 458.905 59.323 458.976 58.9516 458.904C58.7509 458.877 58.5583 458.808 58.3868 458.7C58.2153 458.593 58.0689 458.45 57.9574 458.281C57.8459 458.112 57.772 457.921 57.7406 457.721C57.7092 457.521 57.7211 457.317 57.7754 457.122C57.8298 456.927 57.9254 456.746 58.0557 456.591C58.186 456.436 58.3481 456.311 58.5309 456.224C58.7138 456.137 58.9131 456.09 59.1155 456.087C59.3179 456.084 59.5187 456.124 59.7042 456.205" fill="white"/>
</g>
<g opacity="0.6">
<path d="M66.3181 468.016L66.1274 465.075L29.3697 467.082C29.3697 467.082 27.6838 467.825 27.9046 468.959L66.3181 468.016Z" fill="white"/>
</g>
<path d="M47.1004 457.84C47.1004 458.021 48.0437 458.081 48.987 458.633C49.9303 459.185 50.432 459.908 50.6026 459.837C50.7732 459.767 50.4722 458.743 49.3182 458.101C48.1641 457.459 47.0503 457.68 47.1004 457.84Z" fill="#263238"/>
<path d="M43.1066 459.516C43.1066 459.687 43.8893 459.968 44.5516 460.7C45.2139 461.433 45.4146 462.226 45.5551 462.216C45.6956 462.206 45.8361 461.212 45.0032 460.299C44.1703 459.386 43.1066 459.346 43.1066 459.516Z" fill="#263238"/>
<path d="M40.9394 464.122C41.11 464.122 41.3508 463.269 40.8491 462.306C40.3473 461.343 39.4542 460.981 39.3739 461.132C39.2937 461.282 39.8556 461.784 40.257 462.577C40.6584 463.37 40.7588 464.112 40.9394 464.122Z" fill="#263238"/>
<path d="M47.3416 453.556C47.4219 453.716 48.2849 453.455 49.3486 453.495C50.4123 453.535 51.2452 453.837 51.3555 453.686C51.4659 453.535 50.633 452.913 49.3486 452.883C48.0641 452.853 47.2312 453.425 47.3416 453.556Z" fill="#263238"/>
<path d="M48.1247 449.23C48.7606 449.379 49.424 449.362 50.0514 449.18C50.7423 449.047 51.4157 448.835 52.0584 448.548C52.4318 448.378 52.7938 448.183 53.1421 447.966C53.3542 447.849 53.5471 447.7 53.7141 447.525C53.8339 447.4 53.9057 447.237 53.9167 447.064C53.9277 446.891 53.8773 446.72 53.7743 446.581C53.6768 446.454 53.5503 446.353 53.4054 446.284C53.2605 446.216 53.1014 446.184 52.9414 446.19C52.7002 446.196 52.4607 446.233 52.229 446.3C51.819 446.405 51.4193 446.546 51.0348 446.722C50.3993 447.009 49.8133 447.395 49.2988 447.866C48.4257 448.658 48.1347 449.331 48.205 449.361C48.2752 449.391 48.7067 448.859 49.5998 448.187C50.1208 447.801 50.6869 447.481 51.2857 447.234C51.6453 447.095 52.0142 446.981 52.3895 446.892C52.7909 446.782 53.1321 446.772 53.2425 446.892C53.3529 447.013 53.2425 446.983 53.2425 447.103C53.1209 447.229 52.9824 447.337 52.8311 447.424C52.5063 447.632 52.1714 447.822 51.8276 447.996C51.2368 448.293 50.6184 448.532 49.9812 448.709C49.3503 448.837 48.7298 449.011 48.1247 449.23V449.23Z" fill="#263238"/>
<path d="M48.3461 449.481C48.693 448.961 48.8555 448.339 48.8077 447.715C48.8286 447.033 48.7231 446.352 48.4966 445.708C48.3599 445.327 48.1851 444.961 47.9748 444.615C47.8566 444.373 47.6799 444.165 47.4609 444.009C47.2418 443.853 46.9874 443.754 46.7205 443.721C46.5524 443.729 46.3897 443.783 46.25 443.877C46.1103 443.971 45.9988 444.101 45.9277 444.253C45.8334 444.466 45.7757 444.693 45.7571 444.926C45.6914 445.331 45.6914 445.744 45.7571 446.15C45.8854 446.831 46.1821 447.469 46.6201 448.006C47.4028 448.93 48.1856 449.12 48.2056 449.06C48.2257 449 47.6035 448.649 47.0014 447.755C46.6604 447.246 46.4375 446.666 46.3492 446.06C46.2941 445.71 46.2941 445.355 46.3492 445.006C46.3492 444.625 46.5398 444.303 46.6904 444.344C46.8409 444.384 47.2222 444.615 47.3828 444.926C47.5809 445.244 47.7489 445.58 47.8845 445.929C48.1159 446.506 48.2581 447.115 48.306 447.735C48.4565 448.789 48.2759 449.451 48.3461 449.481Z" fill="#263238"/>
<path d="M94.817 441.263L98.5199 470.213L136.652 465.477C136.01 462.065 115.449 457.6 115.449 457.6L113.903 438.945L94.817 441.263Z" fill="#455A64"/>
<g opacity="0.6">
<path d="M103.427 457.499C103.08 457.637 102.797 457.9 102.635 458.237C102.473 458.573 102.444 458.959 102.554 459.316C102.71 459.659 102.989 459.932 103.337 460.08C103.684 460.229 104.074 460.242 104.43 460.118C104.799 459.974 105.099 459.694 105.269 459.336C105.439 458.978 105.465 458.569 105.343 458.192C105.143 457.861 104.828 457.614 104.459 457.498C104.09 457.382 103.691 457.403 103.336 457.56" fill="white"/>
</g>
<g opacity="0.6">
<path d="M98.5188 470.213L98.2679 467.273L134.915 463.841C134.915 463.841 136.651 464.283 136.651 465.477L98.5188 470.213Z" fill="white"/>
</g>
<path d="M116 457.339C116 457.519 115.097 457.71 114.244 458.392C113.391 459.075 113 459.867 112.819 459.817C112.639 459.767 112.819 458.723 113.823 457.921C114.826 457.118 116.021 457.168 116 457.339Z" fill="#263238"/>
<path d="M120.185 458.402C120.256 458.573 119.483 458.974 118.941 459.797C118.399 460.62 118.309 461.423 118.128 461.443C117.948 461.463 117.697 460.44 118.389 459.436C119.081 458.433 120.165 458.262 120.185 458.402Z" fill="#263238"/>
<path d="M123.005 462.647C122.845 462.707 122.484 461.865 122.845 460.841C123.206 459.817 124.029 459.326 124.119 459.456C124.21 459.587 123.738 460.179 123.457 461.022C123.176 461.865 123.196 462.607 123.005 462.647Z" fill="#263238"/>
<path d="M115.149 453.134C115.089 453.304 114.206 453.134 113.142 453.365C112.078 453.595 111.316 453.977 111.205 453.836C111.095 453.696 111.797 452.973 113.032 452.753C114.266 452.532 115.229 452.983 115.149 453.134Z" fill="#263238"/>
<path d="M113.723 448.97C113.117 449.205 112.461 449.281 111.817 449.191C111.117 449.167 110.422 449.056 109.75 448.859C109.352 448.752 108.963 448.615 108.586 448.448C108.358 448.364 108.145 448.245 107.953 448.097C107.818 447.99 107.724 447.84 107.687 447.671C107.651 447.503 107.674 447.327 107.753 447.174C107.835 447.035 107.947 446.918 108.08 446.829C108.214 446.74 108.366 446.683 108.525 446.662C108.765 446.631 109.008 446.631 109.248 446.662C109.666 446.702 110.079 446.783 110.482 446.903C111.156 447.092 111.796 447.387 112.379 447.776C113.382 448.438 113.733 449.06 113.673 449.1C113.613 449.14 113.101 448.669 112.128 448.147C111.218 447.647 110.212 447.346 109.178 447.264C108.756 447.214 108.415 447.264 108.335 447.434C108.254 447.605 108.335 447.535 108.405 447.635C108.545 447.741 108.701 447.826 108.867 447.886C109.214 448.051 109.573 448.192 109.94 448.307C110.568 448.511 111.213 448.659 111.867 448.749C112.49 448.775 113.111 448.849 113.723 448.97V448.97Z" fill="#263238"/>
<path d="M113.512 449.231C113.093 448.764 112.843 448.171 112.8 447.545C112.68 446.881 112.68 446.201 112.8 445.538C112.873 445.141 112.991 444.754 113.151 444.384C113.23 444.128 113.373 443.896 113.566 443.71C113.759 443.524 113.996 443.39 114.255 443.32C114.422 443.301 114.591 443.329 114.743 443.4C114.895 443.47 115.025 443.582 115.118 443.722C115.237 443.922 115.328 444.139 115.389 444.364C115.507 444.757 115.558 445.168 115.539 445.578C115.526 446.287 115.325 446.979 114.957 447.585C114.325 448.588 113.573 448.92 113.542 448.859C113.512 448.799 114.084 448.358 114.546 447.394C114.806 446.839 114.94 446.232 114.937 445.618C114.935 445.277 114.881 444.939 114.777 444.615C114.676 444.233 114.486 443.942 114.335 444.003C114.185 444.063 113.864 444.354 113.743 444.675C113.595 444.999 113.474 445.334 113.382 445.678C113.248 446.284 113.197 446.905 113.231 447.525C113.332 448.578 113.573 449.231 113.512 449.231Z" fill="#263238"/>
<path d="M35.9139 283.967L95.7117 285.883C95.7117 285.883 109.811 379.99 109.419 386.543L118.109 454.78L92.8216 455.673C92.8216 455.673 88.8077 433.526 86.0682 418.374C84.2217 408.339 80.85 393.507 79.9369 385.088C79.0237 376.669 64.2323 317.854 64.2323 317.854C64.2323 317.854 65.3261 386.091 65.296 388.901C65.2659 391.711 68.2262 455.593 68.2262 455.593H43.139C41.8445 444.063 38.7638 397.922 38.1216 388.6C36.9174 371.762 33.1041 324.196 32.5924 312.044C32.0806 299.892 35.9139 283.967 35.9139 283.967Z" fill="#263238"/>
<path d="M39.8566 284.428C40.1365 283.013 40.1365 281.558 39.8566 280.143C39.5623 281.556 39.5623 283.015 39.8566 284.428V284.428Z" fill="#455A64"/>
<path d="M37.3678 285.562C37.8438 283.757 37.6844 281.844 36.9162 280.143C36.9434 281.051 37.0305 281.956 37.1771 282.852C37.1799 283.759 37.2436 284.664 37.3678 285.562V285.562Z" fill="#455A64"/>
<path d="M59.704 281.076C60.1894 281.176 60.6314 281.425 60.9684 281.789C61.1365 281.98 61.2605 282.206 61.3316 282.451C61.4027 282.695 61.4192 282.952 61.3798 283.204C61.2947 283.492 61.1317 283.752 60.9086 283.954C60.6855 284.156 60.411 284.292 60.1154 284.348C59.8197 284.404 59.5143 284.378 59.2328 284.271C58.9513 284.165 58.7046 283.983 58.5199 283.746C58.3931 283.526 58.315 283.281 58.2907 283.028C58.2665 282.776 58.2967 282.521 58.3794 282.281C58.5554 281.815 58.8798 281.42 59.3026 281.157C59.3026 281.157 59.132 281.157 58.8811 281.267C58.5248 281.47 58.2486 281.789 58.0984 282.17C57.9728 282.454 57.9147 282.763 57.9286 283.073C57.9426 283.383 58.0282 283.685 58.1787 283.956C58.3997 284.275 58.7084 284.523 59.0674 284.67C59.4264 284.817 59.8203 284.857 60.2015 284.785C60.5826 284.713 60.9347 284.531 61.215 284.263C61.4954 283.995 61.692 283.652 61.7812 283.274C61.8223 282.966 61.7911 282.652 61.6901 282.357C61.5891 282.063 61.421 281.796 61.1992 281.578C60.9158 281.281 60.5415 281.087 60.1355 281.026C59.8545 280.996 59.704 281.056 59.704 281.076Z" fill="#455A64"/>
<path d="M87.2711 384.927C89.4543 384.266 91.5928 383.465 93.6733 382.529C95.8113 381.729 97.8961 380.794 99.915 379.729C97.7296 380.394 95.588 381.195 93.5027 382.127C91.3692 382.93 89.2879 383.865 87.2711 384.927V384.927Z" fill="#455A64"/>
<path d="M90.4917 142.525C90.3011 139.043 88.1536 136.895 85.1532 135.119C83.6406 134.241 81.9383 133.742 80.1911 133.663C78.444 133.584 76.7037 133.929 75.1183 134.668C73.011 135.671 71.1646 137.377 68.8566 137.678C65.0433 138.17 61.4408 134.668 57.7078 135.52C56.594 135.788 55.6071 136.432 54.9147 137.344C54.2223 138.257 53.8672 139.381 53.9098 140.525C53.9524 141.67 54.39 142.764 55.1482 143.623C55.9064 144.481 56.9385 145.051 58.0691 145.234C55.5704 145.595 54.1655 148.756 55.0586 151.095C55.9517 153.433 58.5909 154.807 61.0796 154.858C63.6144 154.777 66.0787 154.003 68.2043 152.62C70.3819 151.356 72.419 149.83 74.6969 148.746C76.933 147.539 79.5234 147.159 82.0123 147.673C85.3138 148.546 87.6519 151.687 88.5048 154.958C89.3578 158.229 88.9965 161.752 88.5048 165.123C88.0131 168.495 87.3408 171.897 87.6619 175.299C87.6596 175.492 87.7018 175.683 87.7853 175.857C87.8689 176.031 87.9915 176.183 88.1436 176.302C88.6453 176.583 89.2274 176.112 89.5986 175.67C93.8246 170.656 97.0229 164.859 99.0113 158.611C100.165 154.998 100.798 151.476 99.4228 147.944C98.048 144.411 93.4019 141.05 90.4516 142.485" fill="#263238"/>
<path d="M93.7321 159.343L88.1628 193.733C87.1593 200.155 82.9446 206.367 72.8696 204.259C64.2597 201.771 64.902 195.579 66.0259 187.943C66.0259 187.943 56.5529 185.484 57.4059 175.851C57.8073 171.194 59.4129 161.681 61.0084 153.092C61.8228 148.644 64.2822 144.665 67.897 141.949C71.5119 139.232 76.0172 137.976 80.5162 138.431L81.4494 138.521C91.394 140.157 95.5986 149.449 93.7321 159.343Z" fill="#FFBE9D"/>
<path d="M66.0267 187.943C70.4664 188.377 74.9375 187.53 78.9115 185.504C78.9115 185.504 75.1384 192.649 65.6354 190.823L66.0267 187.943Z" fill="#EB996E"/>
<path d="M62.8955 161.511C62.8556 161.868 62.9572 162.227 63.1786 162.51C63.3999 162.793 63.7234 162.978 64.0797 163.026C64.2527 163.059 64.4306 163.057 64.6027 163.019C64.7748 162.981 64.9375 162.909 65.081 162.807C65.2244 162.705 65.3457 162.575 65.4375 162.424C65.5293 162.274 65.5897 162.106 65.615 161.932C65.6549 161.575 65.5533 161.216 65.332 160.933C65.1106 160.65 64.7872 160.464 64.4309 160.417C64.258 160.385 64.0805 160.389 63.909 160.427C63.7374 160.465 63.5753 160.537 63.4321 160.639C63.289 160.741 63.1678 160.871 63.0756 161.021C62.9834 161.17 62.9222 161.337 62.8955 161.511Z" fill="#263238"/>
<path d="M62.5945 158.019C62.745 158.219 63.8689 157.547 65.344 157.708C66.8192 157.868 67.8327 158.711 68.0133 158.541C68.1939 158.37 67.9531 158.129 67.5216 157.738C66.9248 157.229 66.1852 156.917 65.4042 156.845C64.6355 156.76 63.8601 156.929 63.1966 157.326C62.7049 157.627 62.5242 157.928 62.5945 158.019Z" fill="#263238"/>
<path d="M76.3532 163.638C76.3133 163.995 76.4149 164.354 76.6363 164.637C76.8576 164.921 77.181 165.106 77.5373 165.153C77.7104 165.186 77.8883 165.184 78.0604 165.146C78.2325 165.109 78.3952 165.037 78.5386 164.935C78.6821 164.832 78.8034 164.702 78.8952 164.552C78.987 164.401 79.0473 164.234 79.0727 164.06C79.1126 163.702 79.011 163.344 78.7896 163.061C78.5683 162.777 78.2448 162.592 77.8886 162.544C77.7157 162.513 77.5382 162.516 77.3667 162.555C77.1951 162.593 77.033 162.665 76.8898 162.767C76.7467 162.869 76.6254 162.999 76.5333 163.148C76.4411 163.298 76.3799 163.465 76.3532 163.638V163.638Z" fill="#263238"/>
<path d="M76.8151 159.755C76.9756 159.945 78.0895 159.283 79.5646 159.433C81.0397 159.584 82.0533 160.437 82.2339 160.276C82.4145 160.116 82.1737 159.865 81.7422 159.474C81.1454 158.965 80.4058 158.653 79.6248 158.58C78.8575 158.499 78.0843 158.664 77.4172 159.052C76.9254 159.353 76.7448 159.664 76.8151 159.755Z" fill="#263238"/>
<path d="M70.6331 170.181C69.88 169.852 69.0873 169.623 68.2749 169.499C67.9037 169.428 67.5524 169.318 67.5123 169.047C67.5232 168.655 67.6488 168.275 67.8736 167.953C68.3251 167.08 68.7968 166.157 69.2784 165.194C71.2854 161.26 72.7003 158.009 72.5398 157.928C71.081 160.166 69.7993 162.515 68.7064 164.953L67.3417 167.742C67.0646 168.174 66.9441 168.688 67.0005 169.197C67.0399 169.338 67.1111 169.467 67.2086 169.574C67.3061 169.682 67.4272 169.766 67.5625 169.82C67.7674 169.892 67.9793 169.942 68.1947 169.97C68.9958 170.14 69.8148 170.21 70.6331 170.181V170.181Z" fill="#263238"/>
<path d="M77.2959 153.925C77.3963 154.346 78.8915 154.306 80.6074 154.687C82.3234 155.069 83.6781 155.691 83.939 155.35C84.0594 155.179 83.8587 154.778 83.3269 154.346C82.6255 153.801 81.8103 153.42 80.9417 153.232C80.0732 153.045 79.1735 153.055 78.3094 153.262C77.607 153.443 77.2558 153.734 77.2959 153.925Z" fill="#263238"/>
<path d="M63.568 153.794C63.7988 154.165 64.8524 153.914 66.0767 154.025C67.3009 154.135 68.3145 154.476 68.5854 154.145C68.7058 153.984 68.5854 153.633 68.1539 153.272C67.5864 152.836 66.9031 152.577 66.1893 152.527C65.4754 152.477 64.7627 152.638 64.14 152.991C63.6483 153.292 63.4676 153.623 63.568 153.794Z" fill="#263238"/>
<path d="M92.2371 166.388C92.4077 166.328 99.0408 165.093 98.1677 171.646C97.2947 178.199 90.8925 175.981 90.9125 175.791C90.9326 175.6 92.2371 166.388 92.2371 166.388Z" fill="#FFBE9D"/>
<path d="M93.241 173.573C93.241 173.573 93.3413 173.663 93.522 173.783C93.7798 173.933 94.0843 173.979 94.3749 173.914C94.8345 173.7 95.229 173.368 95.5182 172.952C95.8073 172.536 95.9807 172.051 96.0207 171.546C96.1156 170.987 96.0813 170.413 95.9203 169.87C95.8894 169.654 95.8054 169.449 95.6757 169.274C95.5461 169.099 95.375 168.959 95.1777 168.866C95.0522 168.812 94.9113 168.804 94.7806 168.845C94.6498 168.885 94.538 168.971 94.4653 169.087C94.3448 169.258 94.3749 169.398 94.3348 169.398C94.2947 169.398 94.2144 169.268 94.3348 169.007C94.3912 168.85 94.5014 168.718 94.6459 168.636C94.8435 168.522 95.0772 168.49 95.2981 168.545C95.5497 168.642 95.7731 168.8 95.9482 169.005C96.1234 169.21 96.2448 169.456 96.3016 169.719C96.505 170.326 96.5567 170.974 96.4522 171.606C96.407 172.189 96.1932 172.746 95.8368 173.209C95.4804 173.672 94.9969 174.022 94.4452 174.215C94.2646 174.239 94.0809 174.222 93.9074 174.167C93.734 174.111 93.5749 174.018 93.4417 173.894C93.231 173.733 93.2209 173.583 93.241 173.573Z" fill="#EB996E"/>
<path d="M61.7924 144.171C62.9158 142.401 64.4649 140.942 66.2981 139.926C70.1438 137.535 74.6448 136.415 79.1628 136.725C83.6979 137.078 87.9184 139.179 90.9337 142.585C93.2393 145.378 94.6735 148.788 95.058 152.389C95.4329 155.976 95.0918 159.602 94.0545 163.056C93.7333 164.612 92.9622 166.039 91.8368 167.16C91.0842 167.803 89.8299 168.164 89.1575 167.482C88.7822 167.032 88.5668 166.471 88.5454 165.886C87.7928 160.688 87.0903 155.099 89.4385 150.402C88.4002 148.599 87.0034 147.028 85.3342 145.786C84.4957 145.171 83.5428 144.729 82.5314 144.486C81.52 144.243 80.4704 144.204 79.4438 144.371C76.4333 144.973 74.326 147.643 71.7872 149.389C69.9568 150.626 67.8585 151.41 65.6654 151.677C63.4722 151.944 61.2471 151.686 59.1733 150.924L61.7924 144.171Z" fill="#263238"/>
<path d="M69.3281 174.165C69.4041 174.788 69.5698 175.396 69.8198 175.971C69.9479 176.258 70.1346 176.516 70.3679 176.726C70.6011 176.937 70.8759 177.097 71.1745 177.195C71.5023 177.264 71.8421 177.249 72.1629 177.153C72.4836 177.057 72.7751 176.881 73.0109 176.643C73.4712 176.155 73.7661 175.533 73.8538 174.867C73.9541 174.265 73.8538 173.513 73.2617 173.312C73.0173 173.257 72.7636 173.257 72.5192 173.312L69.1675 173.924" fill="#EB996E"/>
<path d="M70.032 176.965C70.5811 177.112 71.152 177.159 71.7179 177.105C72.3013 177.008 72.8276 176.697 73.193 176.232C73.4076 175.949 73.5597 175.624 73.6392 175.278C73.7188 174.932 73.724 174.573 73.6546 174.225C73.621 174.048 73.5637 173.875 73.484 173.713C73.3937 173.553 73.4138 173.563 73.2733 173.563C73.0944 173.582 72.9168 173.612 72.7414 173.653L72.1895 173.753L70.2829 174.075C69.7016 174.213 69.103 174.263 68.5067 174.225C69.0377 173.951 69.611 173.768 70.2026 173.683C70.7445 173.543 71.3767 173.402 72.0892 173.242L72.631 173.121C72.8317 173.121 72.9823 173.031 73.2432 173.011C73.4049 172.998 73.5666 173.036 73.7048 173.121C73.8226 173.213 73.9186 173.329 73.9858 173.462C74.0891 173.669 74.1634 173.888 74.2065 174.115C74.2941 174.543 74.2846 174.985 74.1786 175.408C74.0727 175.832 73.8731 176.227 73.5944 176.563C73.1321 177.102 72.4759 177.438 71.768 177.496C71.3089 177.553 70.8433 177.48 70.4234 177.286C70.1324 177.125 70.0119 176.995 70.032 176.965Z" fill="#263238"/>
<path d="M45.5958 160.026L44.0404 159.604L19.8263 183.136L0.178003 185.504C0.178003 185.504 0.378703 179.574 7.75433 172.007C14.3773 165.244 29.7809 157.216 34.999 153.061C35.6726 152.492 36.4355 152.038 37.2568 151.717L45.5958 160.026Z" fill="#FFBE9D"/>
<path d="M45.606 148.827L48.0847 148.124L53.9249 145.355L60.568 147.833C60.568 147.833 60.4175 150.101 58.6714 149.479L65.6356 151.777C65.6356 151.777 65.0636 153.433 64.7526 153.543C64.4415 153.653 68.8368 154.015 68.8368 154.015C68.8368 154.015 68.8368 156.252 64.6723 156.212C60.5078 156.172 58.8922 155.46 58.8922 155.46L55.5506 156.353L55.681 158.36L60.2369 158.29L60.0261 160.838C58.0908 161.247 56.1344 161.549 54.1658 161.742C54.1658 161.742 47.1414 161.842 45.2347 160.919C43.3281 159.995 40.8997 158.681 40.8997 158.681L37.257 151.737L45.606 148.827Z" fill="#FFBE9D"/>
<path d="M51.8773 150.001C51.8773 150.061 52.2686 149.87 52.8808 149.589C53.7003 149.238 54.4891 148.818 55.239 148.335H54.9379L55.2088 148.506C56.0381 149.036 56.9731 149.378 57.9484 149.509C58.6909 149.61 59.1525 149.509 59.1525 149.509C57.8721 149.203 56.6373 148.731 55.4798 148.104L55.2289 147.944L55.0784 147.843L54.9279 147.954C54.115 148.516 53.2621 148.957 52.7001 149.308C52.1382 149.66 51.8271 149.951 51.8773 150.001Z" fill="#EB996E"/>
<path d="M54.0154 153.543C54.0154 153.543 54.4669 153.704 55.1393 153.413C55.8116 153.122 56.5642 152.409 57.5175 152.008H57.2767C57.7047 152.296 58.1542 152.551 58.6214 152.77C59.7961 153.332 61.0735 153.646 62.3744 153.694C62.909 153.762 63.4521 153.704 63.9599 153.523C62.2009 153.382 60.4745 152.969 58.8421 152.299C58.3975 152.092 57.9683 151.854 57.5577 151.586L57.4272 151.516H57.3168C56.2331 152.068 55.6009 152.801 55.0088 153.102C54.4168 153.403 54.0154 153.463 54.0154 153.543Z" fill="#EB996E"/>
<path d="M47.7935 155.721C47.7935 155.801 48.3052 155.65 49.098 155.66C50.1243 155.673 51.1262 155.976 51.988 156.534C52.5584 156.902 53.0468 157.383 53.423 157.948L53.4832 158.039H53.5736C54.3463 158.259 55.1487 158.357 55.9518 158.33C55.233 157.965 54.4607 157.718 53.6639 157.597L53.8144 157.698C53.4378 157.045 52.9116 156.491 52.279 156.082C51.3358 155.463 50.2117 155.18 49.088 155.279C48.225 155.379 47.7634 155.67 47.7935 155.721Z" fill="#EB996E"/>
<path d="M40.8998 158.661C40.96 158.714 41.0276 158.758 41.1005 158.791L41.7327 159.153L44.1612 160.467C44.7353 160.819 45.3525 161.096 45.9975 161.29C46.774 161.47 47.5619 161.598 48.3557 161.671C50.0616 161.842 52.0084 161.912 54.1659 161.912L56.785 161.641C57.7541 161.56 58.7143 161.396 59.655 161.149H59.7553V161.019C59.8958 160.146 60.0463 159.193 60.2069 158.219L60.2571 157.938H59.9761L55.641 158.119L55.9019 158.34C55.9019 157.728 55.8116 157.045 55.7715 156.333L55.5808 156.594L58.9325 155.701H58.7619C60.3888 156.195 62.0788 156.452 63.7793 156.463C64.6611 156.519 65.5465 156.475 66.4185 156.333C66.8945 156.274 67.3527 156.114 67.7626 155.865C68.1726 155.616 68.5251 155.283 68.7967 154.888C68.948 154.624 69.0373 154.328 69.0577 154.025V153.794H68.8068C67.8033 153.704 66.7296 153.613 65.716 153.503L64.9735 153.403H64.8129V153.453C64.8431 153.48 64.8649 153.515 64.8756 153.554C64.8863 153.593 64.8854 153.635 64.8731 153.673C64.8731 153.764 64.6925 153.884 64.7326 153.844C64.7915 153.82 64.8458 153.786 64.8932 153.744C65.0017 153.631 65.093 153.502 65.1641 153.362C65.3962 152.901 65.5973 152.425 65.7662 151.937L65.8565 151.687L65.6057 151.606L58.5813 149.318L58.4207 149.78C58.7027 149.884 59.0056 149.918 59.3038 149.88C59.6095 149.826 59.8866 149.666 60.0865 149.429C60.4219 148.992 60.6178 148.464 60.6484 147.913V147.743L60.4678 147.673L53.8147 145.224H53.7344H53.6541L47.8239 148.024L45.3854 148.726L43.258 149.479L39.8863 150.703L37.7689 151.486C37.5184 151.561 37.2762 151.662 37.0464 151.787C37.301 151.731 37.5523 151.66 37.7991 151.576L39.9465 150.884L43.3483 149.75L45.4757 149.037L47.9242 148.375L53.7846 145.636H53.614L60.2571 148.134L60.0965 147.893C60.0705 148.34 59.9135 148.77 59.645 149.128C59.5002 149.271 59.3151 149.368 59.1143 149.403C58.9135 149.439 58.7066 149.413 58.521 149.328L58.3605 149.8L65.3147 152.108L65.1541 151.777C65.0007 152.24 64.8094 152.69 64.5821 153.122C64.5391 153.211 64.4852 153.296 64.4215 153.372V153.372C64.4496 153.408 64.4701 153.449 64.4818 153.493V153.493C64.3814 153.232 64.4818 153.423 64.4115 153.372H64.3413C64.2953 153.411 64.2635 153.464 64.251 153.523C64.2415 153.566 64.243 153.61 64.2552 153.652C64.2675 153.694 64.2902 153.733 64.3212 153.764C64.4015 153.844 64.3814 153.814 64.4015 153.824H64.4918H64.7025L65.4752 153.924C66.4787 154.045 67.4822 154.135 68.576 154.225L68.3452 153.975C68.3219 154.183 68.257 154.384 68.1545 154.567C67.9215 154.894 67.6226 155.17 67.277 155.375C66.9314 155.581 66.5467 155.712 66.1475 155.761C65.3119 155.897 64.4635 155.937 63.6188 155.881C61.9847 155.876 60.3597 155.639 58.792 155.179H58.6916H58.6214L55.2798 156.082H55.0791V156.283C55.0791 156.975 55.1694 157.657 55.2095 158.29V158.53H55.4504L59.7754 158.33L59.5346 158.059C59.384 159.062 59.2335 159.995 59.1031 160.868L59.2235 160.708C58.3266 160.932 57.4142 161.09 56.494 161.18L53.895 161.471C51.7575 161.471 49.8208 161.471 48.1249 161.31C47.3424 161.257 46.5645 161.15 45.7968 160.989C45.1659 160.809 44.5592 160.553 43.9906 160.226L41.522 159.002L40.8697 158.701C40.9801 158.681 40.9099 158.651 40.8998 158.661Z" fill="#EB996E"/>
<path d="M49.2889 151.105C49.9254 152.173 50.81 153.071 51.8679 153.724C52.8343 154.507 53.9726 155.051 55.1894 155.31C55.2496 155.169 53.7845 154.457 52.1789 153.303C50.5734 152.149 49.4093 151.005 49.2889 151.105Z" fill="#EB996E"/>
<path d="M0.388062 184.772L19.8256 183.136L42.7452 191.856L47.7627 194.927L40.6178 219.432C40.6178 219.432 4.70305 198.269 3.17775 196.462C1.80955 194.88 0.841882 192.992 0.356366 190.957C-0.12915 188.923 -0.118271 186.801 0.388062 184.772V184.772Z" fill="#FFB64F"/>
<path d="M104.15 202.784L110.834 206.929L95.3999 267.69L98.1996 302.722C94.1857 306.194 84.1508 309.174 65.0846 308.09C46.0183 307.006 33.2941 298.708 33.2941 298.708L35.1205 262.672L39.4656 222.011L44.3325 194.205L59.0235 195.268L64.7534 191.876L67.3224 193.161L70.6138 202.293L79.1836 196.091L89.2184 191.264L92.8812 198.098L104.15 202.784Z" fill="#FFB64F"/>
<path d="M44.3319 201.279C44.118 201.711 43.9433 202.161 43.8101 202.624C43.489 203.507 43.0876 204.791 42.6059 206.397C41.3792 210.575 40.3743 214.816 39.5955 219.101C38.8405 223.385 38.3112 227.706 38.0099 232.046C37.8996 233.712 37.8494 235.056 37.8393 235.99C37.7877 236.473 37.7877 236.961 37.8393 237.445C37.9346 236.968 37.9916 236.485 38.0099 236C38.1003 234.996 38.2106 233.661 38.3511 232.076C38.6622 228.764 39.1941 224.189 40.0872 219.191C40.9803 214.194 42.044 209.718 42.8969 206.497C43.3084 204.962 43.6596 203.677 43.9004 202.684C44.0958 202.233 44.2405 201.762 44.3319 201.279V201.279Z" fill="#263238"/>
<path d="M73.352 201.761C73.8413 201.677 74.3109 201.504 74.7369 201.249C75.9251 200.623 76.9548 199.734 77.7473 198.65L77.3861 198.55C77.595 201.543 78.1989 204.495 79.1823 207.33L79.2927 207.651L79.5737 207.461L80.2761 206.969C83.7381 204.591 86.8489 202.413 89.0867 200.807L91.7159 198.891C92.0514 198.672 92.3611 198.416 92.6391 198.128C92.2832 198.287 91.9466 198.485 91.6356 198.72L88.9161 200.506C86.6181 202.022 83.4772 204.159 80.0252 206.527L79.3128 207.009L79.7142 207.139C78.7399 204.346 78.1064 201.445 77.8276 198.499V197.958L77.5165 198.399C76.7702 199.465 75.8099 200.364 74.6967 201.038C73.8237 201.53 73.332 201.711 73.352 201.761Z" fill="#263238"/>
<path d="M59.615 196.352C60.6052 197.668 61.6955 198.906 62.8763 200.055L63.0569 200.245L63.2376 200.045C63.9114 199.256 64.639 198.515 65.4151 197.827C65.8366 197.466 66.248 197.125 66.6594 196.824L67.2716 196.372C67.3176 196.361 67.3647 196.354 67.4121 196.352C67.4121 196.352 67.4121 196.352 67.5024 196.502L68.4356 198.891C68.69 199.645 69.0265 200.368 69.4391 201.048C69.3145 200.263 69.099 199.495 68.7969 198.76C68.536 198.008 68.255 197.195 67.964 196.332C67.9374 196.24 67.8926 196.155 67.8322 196.08C67.7719 196.006 67.6973 195.945 67.6128 195.9C67.5156 195.868 67.412 195.859 67.3108 195.875C67.2095 195.891 67.1135 195.93 67.0307 195.991L66.3885 196.452C65.957 196.763 65.5255 197.115 65.104 197.456C64.3043 198.158 63.5657 198.927 62.8964 199.754H63.2576C62.1334 198.527 60.9155 197.39 59.615 196.352V196.352Z" fill="#263238"/>
<path d="M63.5886 305.461C57.1552 304.253 50.5273 304.581 44.2448 306.419C37.9622 308.257 32.2025 311.553 27.4349 316.038C22.6673 320.524 19.0265 326.072 16.8089 332.23C14.5914 338.389 13.8599 344.985 14.674 351.48C15.488 357.975 17.8247 364.186 21.4936 369.607C25.1625 375.028 30.0599 379.506 35.787 382.676C41.5142 385.846 47.909 387.619 54.4509 387.85C60.9928 388.08 67.4966 386.763 73.4328 384.004V384.004C81.4134 380.288 88.0081 374.134 92.2665 366.43C96.525 358.725 98.2272 349.867 97.1279 341.133C96.0285 332.399 92.1845 324.239 86.1496 317.83C80.1148 311.421 72.2009 307.093 63.5485 305.471L63.5886 305.461ZM48.7671 384.415C39.692 382.701 31.5279 377.801 25.7463 370.599C19.9646 363.397 16.9459 354.366 17.2341 345.135C17.5223 335.904 21.0986 327.079 27.3182 320.252C33.5379 313.425 41.9918 309.044 51.1562 307.898C60.3206 306.753 69.5926 308.92 77.3009 314.007C85.0092 319.094 90.6468 326.767 93.1975 335.644C95.7482 344.52 95.0442 354.016 91.2125 362.419C87.3807 370.822 80.6731 377.58 72.2989 381.475C64.9551 384.891 56.7256 385.919 48.7671 384.415V384.415Z" fill="#455A64"/>
<path d="M55.992 389.894C66.9395 389.909 77.4952 385.822 85.5772 378.437C93.6592 371.053 98.6808 360.908 99.6514 350.003C100.622 339.099 97.4714 328.227 90.8208 319.531C84.1702 310.835 74.5025 304.947 63.7245 303.028C52.9465 301.109 41.8406 303.298 32.5974 309.165C23.3541 315.031 16.6445 324.147 13.7918 334.717C10.9392 345.286 12.1506 356.541 17.1873 366.261C22.2239 375.981 30.72 383.461 40.9999 387.225C45.8013 388.99 50.8765 389.894 55.992 389.894V389.894ZM55.9017 309.505C61.0214 309.501 66.0855 310.566 70.7701 312.632C75.4547 314.697 79.6566 317.718 83.107 321.5C86.5574 325.282 89.1803 329.743 90.808 334.597C92.4357 339.451 93.0323 344.592 92.5596 349.689C92.0869 354.787 90.5554 359.73 88.063 364.202C85.5705 368.674 82.1721 372.577 78.0851 375.66C73.9981 378.744 69.3124 380.94 64.328 382.109C59.3435 383.278 54.1699 383.394 49.1382 382.449V382.449C43.3944 381.359 37.9914 378.922 33.3736 375.337C28.7557 371.752 25.055 367.121 22.5759 361.827C19.9709 356.222 18.8191 350.052 19.2269 343.884C19.6347 337.717 21.5889 331.752 24.9093 326.539C28.2297 321.326 32.8093 317.033 38.2257 314.056C43.6422 311.079 49.7211 309.514 55.9017 309.505V309.505Z" fill="#455A64"/>
<path d="M157.053 305.732L156.682 304.829C155.899 302.892 154.173 301.758 152.828 302.31L92.0773 327.026C91.7763 327.146 91.6759 327.598 91.8465 328.029L94.4355 334.392C94.6162 334.823 94.9975 335.074 95.2985 334.953L156.05 310.187C157.394 309.636 157.846 307.629 157.053 305.732Z" fill="#455A64"/>
<path d="M100.316 235.729L107.621 259.903L103.958 309.174L114.736 310.529C114.736 310.529 127.079 268.603 125.855 261.017C124.63 253.43 119.593 231.333 119.593 231.333L100.316 235.729Z" fill="#FFBE9D"/>
<path d="M103.988 308.823L98.971 317.392L95.8401 325.42L100.526 323.584C100.526 323.584 102.533 333.278 103.346 333.529C104.159 333.779 106.417 332.997 106.186 331.14C106.52 331.466 106.925 331.711 107.368 331.857C107.812 332.003 108.282 332.046 108.745 331.983C110.17 331.692 110.511 330.769 110.351 328.973C110.351 328.973 112.006 330.317 113 329.484C113.304 329.185 113.54 328.824 113.694 328.426C113.848 328.029 113.916 327.602 113.893 327.176C113.893 327.176 116.05 327.357 116.351 326.243C116.668 324.413 116.709 322.546 116.472 320.704C116.221 319.48 115.177 314.502 115.177 314.502L114.696 310.488L103.988 308.823Z" fill="#FFBE9D"/>
<path d="M105.163 325.551C105.554 326.423 105.808 327.351 105.916 328.301C106.164 329.226 106.269 330.184 106.227 331.14C105.833 330.269 105.579 329.341 105.474 328.391C105.226 327.466 105.121 326.508 105.163 325.551V325.551Z" fill="#EB996E"/>
<path d="M109.558 324.437C109.926 325.113 110.155 325.857 110.23 326.624C110.453 327.365 110.532 328.142 110.461 328.912C110.101 328.228 109.872 327.483 109.789 326.715C109.571 325.976 109.493 325.204 109.558 324.437V324.437Z" fill="#EB996E"/>
<path d="M113.231 323.403C113.449 324.012 113.565 324.653 113.573 325.3C113.743 326.303 114.014 327.156 113.884 327.206C113.438 326.693 113.173 326.048 113.131 325.37C112.979 324.718 113.014 324.036 113.231 323.403V323.403Z" fill="#EB996E"/>
<path d="M100.196 320.784C100.584 321.64 100.854 322.545 100.999 323.474C101.289 324.368 101.465 325.295 101.521 326.233C101.036 325.419 100.712 324.52 100.567 323.584C100.271 322.682 100.145 321.733 100.196 320.784V320.784Z" fill="#EB996E"/>
<path d="M126.448 277.293C126.448 276.47 129.819 264.99 128.796 259.039C127.772 253.089 115.53 212.879 113.884 210.009C112.587 208.073 110.777 206.538 108.656 205.574C106.294 206.854 104.213 208.597 102.539 210.699C100.865 212.8 99.6317 215.218 98.912 217.806C96.4535 226.627 96.4535 237.695 96.4535 237.695L106.298 262.11L105.124 275.978L126.448 277.293Z" fill="#FFB64F"/>
<path d="M97.0755 236.893C97.1758 236.893 96.9852 235.086 97.0755 232.196C97.137 230.515 97.3012 228.84 97.5672 227.179C98.205 223.082 99.4638 219.106 101.3 215.388C102.046 213.87 102.884 212.399 103.809 210.983C105.394 208.554 106.578 207.199 106.508 207.139C106.181 207.411 105.885 207.717 105.625 208.052C104.875 208.905 104.177 209.803 103.538 210.742C102.562 212.145 101.684 213.614 100.909 215.137C99.0085 218.886 97.7308 222.919 97.1256 227.079C96.8851 228.774 96.7577 230.484 96.7443 232.196C96.7285 233.346 96.7855 234.496 96.9149 235.638C96.9282 236.061 96.982 236.481 97.0755 236.893V236.893Z" fill="#263238"/>
<path d="M97.7065 242C97.952 243.031 98.2878 244.039 98.7099 245.011C99.4224 246.867 100.496 249.386 101.72 252.136L104.891 259.16C105.277 260.158 105.733 261.127 106.256 262.06C106.011 261.029 105.675 260.022 105.253 259.05C104.54 257.193 103.466 254.675 102.242 251.925L99.0712 244.901C98.6853 243.903 98.2293 242.934 97.7065 242V242Z" fill="#263238"/>
<path d="M105.725 263.054C107.891 261.898 110.146 260.918 112.469 260.124C114.845 259.503 117.268 259.077 119.714 258.849C118.996 258.692 118.257 258.652 117.526 258.729C115.76 258.813 114.011 259.113 112.318 259.622C110.623 260.129 108.998 260.847 107.481 261.759C106.831 262.094 106.238 262.531 105.725 263.054V263.054Z" fill="#263238"/>
<path d="M41.6427 332.204C41.5524 332.314 49.4599 339.229 59.3141 347.668C69.1683 356.107 77.2263 362.841 77.3166 362.72C77.407 362.6 69.4995 355.696 59.6452 347.266C49.791 338.837 41.733 332.094 41.6427 332.204Z" fill="white"/>
<path d="M31.4676 332.204C31.3672 332.314 38.0304 338.225 46.3493 345.34C54.6682 352.454 61.4719 358.194 61.5722 358.084C61.6726 357.974 54.9994 352.063 46.6905 344.948C38.3816 337.834 31.5579 332.094 31.4676 332.204Z" fill="white"/>
<path d="M16.4845 346.303C16.4845 346.303 16.4845 346.092 16.5447 345.671C16.6049 345.249 16.6049 344.607 16.6651 343.794C16.6651 343.383 16.6651 342.921 16.7454 342.419C16.8257 341.918 16.906 341.366 16.9963 340.764C17.0866 340.162 17.187 339.529 17.2973 338.847C17.4077 338.165 17.6385 337.462 17.8091 336.699C18.7351 333.011 20.2099 329.483 22.1843 326.233C24.7682 321.915 28.158 318.133 32.169 315.094L33.8649 313.83C34.467 313.439 35.0892 313.087 35.7113 312.706C36.3335 312.325 36.9456 311.903 37.628 311.592L39.635 310.589L40.6385 310.097L41.7323 309.706L43.9399 308.903C44.6925 308.652 45.4753 308.491 46.2479 308.281C47.0292 308.053 47.8234 307.872 48.6262 307.739C50.2636 307.435 51.9199 307.244 53.5834 307.167C54.4264 307.167 55.2793 307.056 56.1423 307.067L58.7313 307.207C59.1728 307.207 59.6144 307.207 60.0459 307.287L61.3504 307.488C62.2234 307.639 63.1165 307.739 63.9896 307.919C65.7642 308.316 67.5107 308.829 69.2178 309.455C70.9695 310.087 72.676 310.838 74.3255 311.703C75.1584 312.154 75.9511 312.706 76.774 313.158C77.1754 313.419 77.5969 313.639 77.9782 313.92L79.1322 314.793C82.3592 317.094 85.1807 319.915 87.4812 323.142L88.3843 324.347L89.1771 325.641L89.9598 326.936C90.2374 327.361 90.4823 327.807 90.6924 328.27L92.017 331.03C92.3782 332.033 92.7294 332.966 93.0807 333.94C95.7767 341.961 95.7767 350.644 93.0807 358.666C92.7194 359.669 92.3682 360.603 92.017 361.566C91.6657 362.529 91.1239 363.412 90.6823 364.335L90.3512 365.018L89.9498 365.67L89.1671 366.965L88.3743 368.259L87.4712 369.463C86.2965 371.047 85.0193 372.552 83.6479 373.969C82.2474 375.323 80.7626 376.586 79.2024 377.752L78.0484 378.615C77.6571 378.906 77.2356 379.117 76.8342 379.378C76.0114 379.859 75.2186 380.381 74.3957 380.833C72.744 381.7 71.0339 382.451 69.278 383.081C67.5709 383.707 65.8244 384.22 64.0498 384.616C63.1768 384.797 62.2837 384.897 61.4106 385.047L60.1061 385.248C59.6646 385.308 59.2331 385.298 58.7915 385.328L56.2025 385.469C55.3395 385.469 54.4866 385.399 53.6436 385.369C51.9801 385.292 50.3238 385.101 48.6864 384.797C47.8826 384.668 47.0882 384.487 46.3081 384.255C45.5355 384.044 44.7427 383.883 44.0001 383.643L41.7925 382.83L40.6987 382.438L39.6952 381.947L37.6882 380.943C37.0058 380.632 36.4037 380.191 35.7715 379.829C35.1393 379.468 34.5272 379.097 33.9251 378.705L32.2292 377.441C28.2158 374.405 24.8256 370.623 22.2445 366.302C20.2556 363.078 18.7605 359.574 17.8091 355.906C17.6385 355.144 17.3776 354.451 17.2973 353.759C17.2171 353.066 17.0866 352.434 16.9963 351.842C16.906 351.25 16.7956 350.698 16.7454 350.196C16.6953 349.695 16.6852 349.193 16.6651 348.812C16.6049 348.009 16.5648 347.387 16.5447 346.945C16.5447 346.524 16.4845 346.303 16.4845 346.303C16.4845 346.303 16.4845 346.524 16.4845 346.945C16.4845 347.367 16.4845 348.009 16.5548 348.822C16.5548 349.236 16.5748 349.698 16.615 350.206C16.615 350.708 16.7555 351.26 16.8358 351.862L17.1167 353.789C17.2476 354.519 17.4151 355.243 17.6185 355.956C18.5036 359.68 19.9591 363.244 21.9335 366.523C24.519 370.895 27.9267 374.726 31.9683 377.802L33.6743 379.087C34.2763 379.478 34.9085 379.849 35.5307 380.231C36.1529 380.612 36.775 381.044 37.4574 381.365L39.5145 382.368L40.518 382.86L41.6219 383.271L43.8496 384.084C44.6022 384.345 45.395 384.506 46.1877 384.716C46.9731 384.957 47.7746 385.141 48.5861 385.268C50.2424 385.584 51.9191 385.782 53.6035 385.86C54.4665 385.86 55.3195 385.981 56.1925 385.971L58.8216 385.84C59.2531 385.84 59.7047 385.84 60.1462 385.76L61.4708 385.559C62.3539 385.409 63.247 385.308 64.1401 385.128C65.9354 384.731 67.7022 384.215 69.4285 383.582C71.2101 382.952 72.944 382.194 74.6165 381.314C75.4494 380.863 76.2522 380.311 77.0851 379.849C77.4965 379.588 77.928 379.368 78.3194 379.077L79.4533 378.184C81.0398 377.012 82.5451 375.735 83.959 374.36C85.3631 372.922 86.6642 371.386 87.8525 369.764L88.7757 368.55L89.5685 367.236L90.3712 365.921L90.7726 365.269L91.1138 364.566L92.4986 361.767L93.5824 358.826C96.319 350.688 96.319 341.878 93.5824 333.739L92.4986 330.819C92.0471 329.886 91.5955 328.953 91.154 328.019C90.9362 327.552 90.6881 327.1 90.4114 326.665L89.6086 325.35L88.8058 324.046L87.8926 322.831C86.6983 321.215 85.3976 319.679 83.9991 318.235C82.5853 316.861 81.08 315.583 79.4935 314.412L78.3194 313.539C77.9251 313.257 77.5164 312.996 77.0951 312.756C76.2622 312.275 75.4594 311.753 74.6265 311.291C72.952 310.416 71.2185 309.658 69.4385 309.023C67.7122 308.391 65.9455 307.874 64.1501 307.478C63.257 307.297 62.3639 307.197 61.4809 307.046L60.1563 306.846C59.7147 306.796 59.2732 306.796 58.8317 306.765L56.2025 306.635C55.3395 306.635 54.4765 306.715 53.6236 306.745C51.9392 306.823 50.2624 307.021 48.6061 307.337C47.7967 307.475 46.9959 307.659 46.2078 307.889C45.4251 308.1 44.6323 308.271 43.8697 308.522L41.6419 309.334L40.5481 309.746L39.5446 310.248L37.5377 311.251C36.8731 311.592 36.2267 311.967 35.6009 312.375C34.9788 312.756 34.3466 313.128 33.7445 313.519L32.0386 314.803C27.9969 317.88 24.5893 321.71 22.0037 326.083C20.0293 329.361 18.5738 332.926 17.6887 336.649C17.5181 337.412 17.2672 338.124 17.187 338.817C17.1067 339.509 16.9963 340.151 16.906 340.744C16.8157 341.336 16.7254 341.898 16.6852 342.399C16.6451 342.901 16.6852 343.403 16.625 343.784C16.625 344.597 16.625 345.219 16.5548 345.661C16.4845 346.102 16.4845 346.303 16.4845 346.303Z" fill="#263238"/>
<path d="M31.045 367.246C30.7379 366.778 30.4027 366.329 30.0415 365.901C29.1294 364.699 28.2916 363.442 27.5328 362.138C24.994 357.849 23.4108 353.063 22.8912 348.107C22.3717 343.15 22.928 338.14 24.5224 333.418C25.0034 331.987 25.5628 330.583 26.1982 329.213C26.4668 328.727 26.6983 328.22 26.8906 327.698C26.8906 327.698 26.7902 327.809 26.6397 328.049C26.4892 328.29 26.2684 328.642 26.0176 329.123C25.3022 330.467 24.6884 331.862 24.1812 333.298C22.4616 338.05 21.8391 343.131 22.3604 348.158C22.8818 353.185 24.5334 358.03 27.1916 362.329C27.9914 363.625 28.8835 364.863 29.8609 366.031C30.2021 366.443 30.5031 366.744 30.6938 366.955C30.8845 367.165 31.025 367.256 31.045 367.246Z" fill="#263238"/>
<path d="M33.1219 370.848C33.0516 370.978 33.3627 371.29 33.8143 371.55C34.2659 371.811 34.6974 371.912 34.7676 371.791C34.8378 371.671 34.5268 371.35 34.0752 371.089C33.6236 370.828 33.1921 370.728 33.1219 370.848Z" fill="#263238"/>
<path d="M84.8625 363.192C84.9633 363.046 85.0443 362.887 85.1034 362.72C85.2439 362.409 85.4646 361.947 85.6954 361.325C86.3636 359.582 86.897 357.791 87.291 355.967C88.6119 349.911 88.4572 343.626 86.84 337.643C85.2228 331.66 82.1904 326.153 77.9987 321.587C76.7458 320.202 75.3834 318.92 73.9245 317.754C73.4228 317.332 72.9913 317.051 72.7103 316.841C72.4293 316.63 72.2788 316.54 72.2588 316.56C72.2387 316.58 72.8006 317.051 73.7941 317.914C75.1916 319.129 76.5057 320.437 77.7277 321.828C81.7977 326.406 84.7469 331.869 86.3422 337.783C87.9375 343.698 88.1352 349.902 86.9197 355.906C86.5558 357.719 86.0731 359.506 85.4747 361.255C85.0833 362.499 84.8224 363.182 84.8625 363.192Z" fill="white"/>
<path d="M61.5703 314.011C63.0852 314.481 64.6846 314.615 66.2566 314.402C65.5277 314.078 64.7359 313.92 63.9385 313.94C63.1534 313.791 62.3452 313.815 61.5703 314.011V314.011Z" fill="white"/>
</svg>
